<?xml version="1.0" encoding="utf-8"?>
<!DOCTYPE svg PUBLIC "-//W3C//DTD SVG 20010904//EN" "http://www.w3.org/TR/2001/REC-SVG-20010904/DTD/svg10.dtd">
<svg version="1.0" width="1602pt" height="375pt" viewBox="0 0 1602 375" preserveAspectRatio="xMidYMid meet" xmlns="http://www.w3.org/2000/svg">
  <g transform="translate(0,375)scale(.075,.075)">
    <path id="path1" d="M 2 -2500 l 3 2500 10675 0 10675 0 0 -2500 0 -2500 -7830 2 -7830 3 1 24 c 2 23 16 37 44 44 49 10 153 65 190 99 16 15 33 40 36 55 9 34 -7 111 -38 181 -19 46 -20 54 -8 63 26 16 54 20 103 13 l 49 -7 -4 32 c -3 31 2 36 84 94 123 88 167 124 239 194 35 34 69 61 75 58 27 -9 122 -124 202 -245 79 -120 95 -134 145 -127 30 4 48 14 64 34 33 43 56 64 66 60 5 -2 43 -45 83 -97 71 -91 104 -147 122 -208 5 -15 26 -49 48 -75 21 -26 57 -71 78 -98 38 -47 42 -50 82 -47 46 3 142 65 178 115 26 35 14 77 -40 140 -70 82 -208 240 -231 265 -12 12 -30 34 -39 48 -9 14 -22 32 -30 40 -22 24 -101 122 -121 151 -20 28 -31 41 -135 152 -100 107 -120 134 -143 190 -11 27 -25 51 -30 55 -11 7 23 82 36 82 3 0 10 -16 15 -35 12 -47 46 -83 86 -90 19 -4 78 -5 132 -3 90 3 99 5 117 28 31 40 65 174 58 230 -6 51 -47 117 -82 131 -21 9 -52 10 -116 3 l -88 -9 29 77 c 15 43 30 84 33 90 5 15 44 141 76 243 11 38 30 106 41 150 19 79 20 81 95 150 41 39 128 116 193 173 65 56 122 112 125 123 9 26 -31 74 -207 245 -125 121 -137 136 -167 208 -18 43 -30 83 -27 89 2 7 28 24 57 38 66 33 146 117 184 194 28 57 30 66 30 185 0 124 0 125 -36 195 -49 95 -123 165 -217 207 -31 15 -258 18 -282 5 -24 -14 59 60 125 110 113 86 114 89 52 182 -19 29 -40 65 -46 80 -16 39 -30 181 -37 356 -3 85 -10 171 -15 191 -15 51 -46 44 -108 -26 -51 -58 -197 -202 -366 -362 -55 -52 -109 -104 -120 -115 -20 -20 -20 -20 -77 16 -53 34 -285 160 -338 184 -51 23 -174 41 -225 33 -69 -11 -68 -11 -90 3 -26 16 -307 11 -350 -7 -25 -10 -41 -9 -94 5 -46 13 -100 18 -200 18 -121 0 -140 -2 -171 -21 -33 -20 -37 -20 -83 -6 -54 18 -369 36 -457 26 -36 -4 -60 -12 -70 -24 -11 -14 -38 -22 -98 -29 -107 -14 -179 -44 -423 -182 l -47 -26 -55 51 c -30 28 -113 105 -183 172 -69 67 -142 134 -161 150 -19 16 -69 62 -111 101 -42 40 -82 73 -89 73 -13 0 -19 -47 -29 -220 -3 -63 -10 -142 -15 -175 -5 -33 -13 -87 -18 -120 -10 -66 -36 -138 -64 -180 -10 -14 -17 -36 -15 -47 3 -21 113 -128 165 -161 15 -9 38 -27 51 -40 13 -12 44 -35 69 -52 58 -38 93 -70 93 -86 0 -7 -26 12 -58 42 -87 82 -121 94 -278 94 -125 0 -133 -1 -189 -30 -77 -40 -163 -126 -200 -200 -29 -57 -30 -66 -30 -185 1 -136 8 -164 61 -240 42 -61 99 -109 173 -145 69 -34 67 -28 29 -137 -20 -54 -35 -74 -102 -138 -119 -112 -244 -242 -258 -268 -8 -15 -9 -28 -3 -38 13 -19 252 -228 314 -274 l 47 -35 27 -135 c 15 -74 31 -148 37 -165 5 -17 21 -71 34 -120 13 -49 44 -127 68 -172 24 -44 41 -83 38 -85 -9 -6 -85 -1 -103 7 -25 11 -87 -1 -116 -23 -13 -10 -35 -35 -49 -57 -21 -33 -24 -47 -19 -99 6 -68 33 -161 58 -197 16 -23 20 -24 155 -24 77 0 146 3 154 8 17 9 60 71 60 88 0 16 18 7 36 -19 15 -21 13 -26 -23 -87 -21 -36 -50 -80 -65 -98 -14 -18 -37 -45 -50 -62 -12 -17 -52 -61 -88 -98 -67 -70 -102 -113 -133 -163 -9 -16 -25 -37 -35 -47 -9 -10 -44 -53 -76 -95 -33 -42 -71 -90 -85 -105 -28 -31 -156 -185 -190 -229 -31 -40 -27 -87 10 -118 81 -66 114 -84 157 -85 43 0 65 17 103 80 6 11 26 35 43 53 60 65 75 89 78 126 2 29 16 53 55 99 73 86 87 105 107 139 10 16 23 28 30 26 7 -2 37 -25 66 -51 42 -38 59 -47 83 -45 36 4 88 60 132 143 33 61 165 229 188 238 8 3 49 -28 101 -78 49 -45 98 -88 109 -95 12 -6 27 -17 33 -23 16 -17 181 -125 202 -132 9 -3 22 -11 28 -18 6 -7 29 -21 50 -32 22 -12 38 -27 37 -35 -1 -8 -14 -49 -28 -91 -37 -106 -32 -140 28 -193 26 -24 73 -56 105 -72 49 -25 68 -29 137 -29 76 0 83 2 128 35 26 19 62 59 80 88 36 59 25 57 152 21 116 -32 217 -53 240 -48 11 3 19 12 19 21 -1 13 16 16 105 21 58 3 122 10 141 15 57 16 177 66 195 82 15 12 19 11 36 -10 25 -33 24 -39 -9 -46 -15 -3 -36 -10 -47 -14 -11 -5 -67 -23 -124 -39 -152 -43 -176 -77 -53 -75 49 1 94 10 171 37 l 103 36 47 -51 c 58 -63 123 -127 136 -132 5 -2 -1244 -5 -2777 -5 l -2788 -1 2 2500 z m 3730 2189 c 114 5 150 12 137 26 -3 2 -93 5 -199 5 -107 1 -210 4 -228 7 l -32 5 0 89 0 89 408 0 409 0 23 -25 c 30 -32 48 -32 56 0 7 28 38 33 93 14 24 -9 35 -9 44 0 19 19 82 13 112 -11 16 -12 30 -18 32 -13 8 24 20 33 51 40 26 5 32 3 32 -10 0 -23 26 -29 52 -11 26 18 70 21 98 6 11 -6 21 -6 25 -1 7 13 198 11 206 -1 4 -7 14 -6 26 0 12 7 101 11 226 11 l 207 0 0 -24 c 0 -14 4 -25 10 -25 6 0 10 9 10 19 0 11 8 22 18 24 9 3 92 6 184 6 165 1 167 0 197 -25 29 -24 31 -25 31 -6 0 12 8 23 18 25 33 9 377 7 392 -2 9 -6 19 -6 26 0 7 5 52 8 101 7 l 88 -3 0 -90 0 -90 -115 -5 -115 -5 34 -18 c 27 -15 51 -18 127 -15 115 4 123 10 131 105 8 101 -1 140 -40 163 -30 19 -54 20 -502 21 -259 0 -663 1 -900 2 -237 0 -473 1 -525 0 -52 -1 -151 -1 -220 -1 -69 0 -143 -1 -165 -1 -22 -1 -148 0 -280 2 -132 2 -325 1 -429 -2 -240 -7 -231 0 -227 -203 1 -45 6 -62 23 -79 22 -20 29 -21 123 -14 55 4 157 10 227 14 z m 2223 16 c 27 11 32 17 28 39 l -5 26 -30 -25 c -28 -24 -35 -25 -161 -25 -102 0 -128 -3 -119 -12 29 -29 221 -31 287 -3 z m -1865 6 c 10 5 -9 8 -52 9 -64 0 -90 -12 -50 -23 21 -6 82 2 102 14 z m 1460 0 c 9 5 -165 9 -404 9 -259 0 -416 -4 -410 -9 5 -5 25 -12 44 -14 59 -8 754 5 770 14 z m 578 6 c -10 2 -28 2 -40 0 -13 -2 -5 -4 17 -4 22 -1 32 1 23 4 z m -2468 49 c 0 9 -11 14 -30 14 -16 0 -30 4 -30 10 0 6 14 10 30 10 20 0 30 5 30 15 0 10 -10 15 -30 15 -16 0 -30 4 -30 10 0 6 14 10 30 10 20 0 30 5 30 15 0 11 -12 15 -45 15 l -45 0 0 -64 0 -65 38 -3 c 44 -4 52 -1 52 18 z m 220 55 c 23 59 20 90 -4 56 -14 -18 -76 -24 -76 -7 0 6 -27 10 -60 10 l -60 0 -1 -32 c 0 -18 -2 -48 -5 -66 -3 -27 -1 -32 16 -32 17 0 20 7 20 49 0 48 0 49 35 53 32 4 36 1 50 -34 8 -21 15 -45 15 -52 0 -18 21 -26 36 -14 7 5 22 36 34 69 z m 336 -59 c 7 5 17 22 24 37 10 24 9 33 -5 55 -14 21 -25 26 -61 26 l -44 0 0 -69 0 -70 38 6 c 20 3 42 10 48 15 z m 1584 42 c 8 85 -3 96 -49 45 l -37 -43 4 37 c 3 29 1 37 -12 37 -13 0 -16 -12 -16 -65 0 -75 10 -81 51 -33 l 28 33 1 -38 c 0 -61 24 -40 30 27 z m 254 -58 c 9 3 16 11 16 18 0 6 11 35 25 64 18 39 21 52 10 52 -8 0 -17 -4 -20 -10 -9 -15 -63 -12 -72 5 -5 8 -13 11 -21 6 -10 -6 -7 -20 13 -62 13 -30 25 -60 25 -67 0 -14 2 -14 24 -6 z m 176 33 c 0 21 3 53 6 70 8 40 -18 43 -42 6 -9 -14 -24 -30 -33 -35 -14 -7 -16 -3 -13 27 3 27 1 34 -9 31 -9 -3 -15 -25 -17 -66 -3 -70 6 -77 49 -36 l 26 25 6 -30 c 9 -44 27 -38 27 8 z m 54 -23 c 18 47 1 152 -21 130 -9 -9 -16 -113 -10 -131 8 -20 23 -19 31 1 z m 166 71 c 0 40 -4 53 -15 53 -10 0 -15 -10 -15 -30 0 -36 -12 -38 -34 -8 -15 23 -16 23 -28 3 -12 -19 -13 -18 -18 10 -9 51 -25 29 -28 -40 -3 -73 8 -83 43 -39 l 22 27 23 -33 c 22 -31 24 -32 37 -14 7 10 13 42 13 71 z m -2918 -60 c 21 19 23 36 6 63 -10 15 -10 22 0 32 6 6 12 16 12 20 0 15 -27 8 -45 -12 -23 -26 -35 -25 -35 1 0 12 -5 19 -12 17 -8 -3 -14 -29 -16 -71 l -3 -67 37 0 c 21 0 46 7 56 17 z m 473 -2 c 0 5 -10 11 -23 13 -21 3 -23 8 -21 55 2 40 0 52 -11 52 -11 0 -16 -14 -18 -48 -2 -30 -8 -50 -18 -54 -8 -3 -14 -12 -14 -20 0 -11 12 -13 52 -11 29 2 53 8 53 13 z m 105 0 c 0 10 -11 15 -35 15 -19 0 -35 5 -35 11 0 8 12 10 35 6 30 -5 35 -3 35 14 0 14 -7 19 -29 19 -17 0 -33 5 -37 11 -5 8 4 10 30 7 30 -3 36 -1 36 14 0 15 -8 18 -45 18 l -45 0 0 -65 0 -65 45 0 c 33 0 45 4 45 15 z m 292 4 c -18 15 -22 30 -22 71 0 44 -3 51 -18 48 -13 -2 -18 -15 -20 -51 -3 -40 -7 -49 -28 -57 -44 -17 -26 -30 44 -30 67 1 67 1 44 19 z m 142 6 c 35 32 31 63 -12 91 -27 19 -38 21 -61 13 -46 -16 -65 -77 -34 -111 24 -26 75 -23 107 7 z m 164 -7 c -2 12 -11 16 -31 14 -31 -4 -38 15 -7 20 26 4 27 22 1 26 -12 2 -22 14 -26 33 -4 16 -10 29 -15 29 -12 0 -16 -30 -12 -88 l 4 -52 45 0 c 37 0 44 3 41 18 z m 117 2 c 38 42 9 110 -48 110 -62 0 -86 -54 -46 -104 25 -32 68 -35 94 -6 z m 139 3 c 8 13 7 24 -6 47 -14 25 -14 31 -2 41 8 6 14 15 14 20 0 18 -27 8 -51 -18 l -24 -28 -3 28 c -6 54 -27 22 -30 -47 l -3 -67 47 3 c 32 2 51 9 58 21 z m 126 -8 c 0 8 -9 15 -20 15 -18 0 -20 7 -20 56 0 47 -3 55 -18 52 -13 -3 -17 -14 -17 -56 0 -43 -3 -52 -17 -52 -10 0 -18 -7 -18 -15 0 -12 13 -15 55 -15 42 0 55 3 55 15 z m 62 12 c 27 26 28 26 28 5 0 -24 19 -40 29 -23 12 18 7 124 -6 128 -6 2 -21 -12 -33 -32 -27 -43 -40 -45 -40 -5 0 20 -5 30 -15 30 -12 0 -15 -13 -15 -58 0 -81 8 -87 52 -45 z m 118 12 c 0 51 -10 101 -21 101 -5 0 -9 -32 -9 -70 0 -56 3 -70 15 -70 11 0 15 11 15 39 z m 120 -28 c 0 6 -9 13 -20 16 -15 4 -20 15 -22 56 -4 73 -28 76 -28 3 0 -49 -2 -56 -20 -56 -11 0 -20 -7 -20 -15 0 -12 13 -15 55 -15 33 0 55 4 55 11 z m 98 1 c -3 7 -17 14 -31 16 -34 4 -35 22 -2 22 16 0 25 6 25 15 0 9 -9 15 -25 15 -14 0 -25 5 -25 11 0 5 10 9 22 7 15 -2 24 3 26 14 3 15 -4 18 -37 18 l -41 0 0 -65 0 -65 46 0 c 32 0 44 4 42 12 z m 163 49 c 24 49 28 64 17 70 -8 5 -16 3 -21 -6 -9 -17 -57 -21 -57 -5 0 6 -9 10 -20 10 -11 0 -20 -3 -20 -6 0 -22 47 -124 57 -124 7 0 27 28 44 61 z m 268 -35 c 12 15 21 32 21 39 0 7 -9 24 -21 39 -16 20 -29 26 -60 26 l -39 0 0 -65 0 -65 39 0 c 31 0 44 6 60 26 z m 641 -11 c 0 10 -10 15 -30 15 -20 0 -30 5 -30 15 0 11 7 14 24 9 28 -7 46 13 19 22 -46 15 -48 17 -19 23 50 10 44 31 -8 31 l -46 0 0 -65 0 -65 45 0 c 33 0 45 4 45 15 z M 3831 -184 c 0 11 3 14 6 6 3 -7 2 -16 -1 -19 -3 -4 -6 2 -5 13 z M 4156 -211 c -10 15 4 61 19 61 22 0 40 -30 28 -48 -12 -20 -39 -27 -47 -13 z M 6040 -192 c 0 12 4 22 10 22 13 0 13 -11 0 -30 -8 -12 -10 -11 -10 8 z M 3480 -210 c -11 7 -12 12 -3 21 14 14 46 4 41 -13 -6 -16 -20 -19 -38 -8 z M 4472 -211 c -21 13 -11 55 14 59 30 4 48 -21 34 -47 -11 -22 -27 -26 -48 -12 z M 4744 -196 c -9 22 15 48 40 44 15 -2 21 -10 21 -28 0 -20 -6 -26 -28 -28 -18 -2 -29 2 -33 12 z M 4897 -213 c -14 13 -6 24 15 21 27 -4 36 -28 10 -28 -10 0 -22 3 -25 7 z M 5606 -191 c -4 7 -5 15 -2 18 9 9 19 -4 14 -18 -4 -11 -6 -11 -12 0 z M 5850 -185 c 0 32 3 36 22 33 18 -2 23 -10 23 -33 0 -23 -5 -31 -23 -33 -19 -3 -22 1 -22 33 z M 5583 -4934 c -88 67 -142 134 -194 236 -40 79 -56 91 -80 62 -18 -22 -113 -68 -178 -88 -38 -11 -94 -16 -185 -16 -146 0 -225 17 -317 67 -71 38 -176 144 -222 223 -36 62 -44 83 -67 175 -7 28 -32 64 -81 117 -73 81 -74 91 -1 58 23 -10 42 -17 42 -15 0 2 -12 26 -27 55 -48 93 -43 317 10 429 7 16 25 30 45 36 l 32 9 0 78 c 0 104 18 107 35 4 3 -21 9 -36 12 -33 3 3 16 51 29 106 26 110 86 276 110 302 14 16 14 18 -3 27 -10 5 -45 14 -78 21 -91 20 -122 31 -135 47 -19 22 -37 17 -61 -18 -13 -18 -44 -59 -71 -91 -26 -32 -48 -63 -48 -68 0 -10 -10 -23 -45 -62 -66 -72 -67 -73 -54 -101 14 -29 19 -31 40 -14 34 29 54 62 55 89 3 60 3 62 17 51 9 -8 23 5 57 54 25 35 49 64 53 64 5 0 36 -26 69 -58 57 -55 60 -60 48 -83 -7 -13 -57 -67 -111 -120 -88 -85 -99 -100 -99 -130 0 -41 -24 -79 -49 -79 -13 0 -39 -43 -96 -155 -86 -170 -113 -209 -142 -198 -10 4 -50 28 -90 55 -56 38 -70 52 -66 68 5 18 131 165 231 268 23 24 42 47 42 51 0 5 -8 19 -18 31 l -17 22 -25 -24 c -69 -67 -140 -150 -135 -158 9 -15 -26 -62 -42 -56 -15 6 -50 -31 -169 -174 -140 -169 -178 -210 -190 -210 -21 0 -235 -272 -248 -317 -8 -25 -32 -53 -46 -53 -5 0 -32 20 -60 45 -79 71 -90 67 -202 -67 -140 -168 -151 -184 -144 -211 4 -18 -1 -30 -20 -48 -14 -13 -48 -52 -76 -87 -27 -34 -57 -62 -65 -62 -19 0 -113 78 -113 93 0 7 63 86 141 177 78 91 153 185 167 210 14 25 43 60 64 78 21 19 38 42 38 52 0 11 16 32 35 47 19 15 35 32 35 36 0 5 33 41 73 81 40 39 79 86 88 104 8 17 35 45 58 62 34 25 42 36 37 54 -6 25 4 42 92 155 94 123 189 263 211 312 10 24 39 64 63 89 24 25 54 60 66 77 l 23 32 -50 52 c -37 38 -49 58 -45 73 5 24 -25 51 -121 108 -114 66 -251 108 -362 108 -50 0 -63 3 -67 18 -9 28 -27 314 -21 320 9 9 173 2 225 -9 107 -23 180 -50 180 -66 0 -12 7 -10 32 11 18 14 75 55 126 91 76 54 92 71 92 92 0 33 62 109 106 130 32 16 35 15 73 -10 l 39 -26 104 41 104 41 -16 60 c -19 68 -28 75 -105 76 -61 1 -70 7 -96 57 -23 44 -64 90 -93 106 -18 10 -18 7 -12 -72 l 8 -83 -101 7 c -55 4 -138 13 -183 21 -46 8 -95 15 -110 15 l -28 0 -2 358 c -4 825 -5 784 14 778 10 -4 98 -20 195 -37 98 -17 184 -35 190 -41 8 -6 13 -35 13 -72 0 -33 5 -68 11 -76 8 -13 12 -11 27 9 9 13 37 50 62 81 25 31 52 67 61 80 l 15 23 127 -16 c 70 -10 143 -17 162 -17 34 0 36 2 35 32 -1 177 14 487 24 491 6 2 103 2 216 -2 199 -6 206 -7 253 -33 l 48 -27 44 31 c 40 28 52 31 142 36 126 6 200 -9 257 -53 48 -36 56 -34 85 23 11 21 16 22 156 22 l 145 0 2 -112 c 2 -62 2 -139 0 -170 l -2 -58 46 0 c 77 0 84 -8 84 -103 l 0 -83 58 3 c 31 2 120 10 196 18 175 19 214 19 289 -1 135 -35 242 -116 295 -224 24 -49 27 -66 27 -155 0 -115 -14 -152 -89 -244 l -44 -54 44 -93 c 55 -116 84 -199 84 -235 0 -23 -6 -29 -37 -40 -20 -6 -70 -27 -112 -46 -41 -19 -120 -45 -174 -58 -75 -18 -106 -30 -129 -52 -33 -31 -88 -106 -88 -120 0 -13 69 -45 81 -37 5 3 18 22 28 43 25 49 112 141 134 141 12 0 3 -18 -34 -66 -28 -37 -48 -73 -45 -80 3 -8 -1 -14 -8 -14 -8 0 -16 -9 -19 -20 -9 -35 11 -22 58 40 25 33 66 72 91 86 25 15 50 38 55 51 5 14 15 23 22 20 6 -2 23 1 37 8 14 7 46 22 72 34 l 48 21 0 -22 c 0 -12 -14 -33 -31 -48 l -32 -26 43 -34 c 66 -52 274 -263 295 -298 14 -23 27 -32 46 -32 54 0 55 -1 47 -123 -3 -61 -7 -137 -7 -168 l -1 -56 -60 -7 c -105 -11 -232 -46 -325 -91 -109 -52 -192 -112 -176 -128 7 -7 -6 -26 -46 -62 l -57 -52 38 -51 c 21 -29 51 -59 66 -69 17 -10 36 -34 46 -57 17 -44 151 -233 264 -373 72 -89 78 -101 59 -120 -7 -7 1 -20 28 -44 21 -19 51 -53 67 -76 15 -23 57 -71 92 -105 121 -121 134 -135 134 -152 0 -9 22 -39 50 -67 28 -27 50 -54 50 -58 0 -5 74 -95 165 -201 91 -107 165 -197 165 -201 0 -14 -98 -89 -118 -89 -11 0 -35 18 -54 42 -20 24 -54 62 -78 85 -35 36 -41 47 -36 70 5 23 -4 42 -60 115 -36 49 -91 115 -122 148 -74 77 -99 80 -157 14 -52 -59 -69 -55 -117 28 -46 80 -212 280 -244 294 -13 5 -55 47 -92 91 -99 120 -255 288 -268 288 -22 1 -74 54 -74 77 -1 20 -50 88 -65 88 -3 0 -5 -11 -5 -25 0 -41 -49 -279 -70 -340 -34 -98 -25 -105 31 -24 28 41 60 84 71 96 20 21 20 21 -1 28 -23 7 -26 36 -13 107 l 7 37 56 -64 c 31 -35 59 -63 61 -62 3 1 -13 -15 -35 -35 -22 -21 -43 -35 -48 -32 -5 3 -6 10 -3 16 4 6 3 8 -3 5 -6 -4 -18 -31 -27 -61 l -17 -55 47 -58 c 46 -56 91 -140 81 -150 -23 -23 -135 -93 -148 -93 -21 0 -69 55 -69 78 0 11 8 5 21 -16 12 -19 29 -32 41 -32 21 0 118 68 118 82 0 13 -10 9 -59 -23 l -46 -31 26 28 c 23 25 25 32 15 55 -6 14 -17 24 -24 22 -9 -4 -12 13 -12 59 l -1 63 -26 -60 c -23 -54 -123 -214 -161 -258 -8 -9 -12 -20 -8 -24 4 -4 44 -7 90 -7 75 0 91 4 148 33 65 33 164 109 273 208 l 59 55 28 -34 28 -33 -58 -53 c -144 -132 -352 -278 -360 -253 -7 20 -32 41 -58 47 -32 8 -45 -4 -19 -18 26 -15 106 -90 101 -95 -2 -2 -37 12 -77 32 -83 43 -113 43 -201 3 -60 -28 -158 -95 -158 -109 0 -4 10 -13 21 -20 35 -18 199 -150 199 -160 0 -4 8 -13 19 -18 17 -10 18 -8 9 27 -7 27 -18 41 -41 52 -18 8 -36 24 -42 36 -14 29 -37 48 -60 52 -48 7 -49 12 -14 48 47 49 74 61 157 69 84 9 95 -4 27 -29 -25 -10 -45 -21 -45 -25 0 -25 35 -103 50 -111 17 -9 26 -38 36 -115 6 -45 -5 -61 -72 -97 -22 -11 -51 -26 -65 -34 -14 -8 -39 -17 -56 -20 -28 -5 -34 -2 -64 42 l -33 49 37 -33 c 39 -33 103 -48 77 -17 -11 14 -7 19 12 16 5 0 8 3 8 9 0 6 15 10 34 10 59 0 49 16 -37 55 -45 21 -116 59 -157 85 -41 27 -96 62 -122 78 -27 17 -48 27 -48 23 0 -8 43 -80 128 -212 34 -53 73 -123 86 -157 14 -34 24 -62 23 -62 -1 1 -35 26 -74 56 z m 1 46 c -4 7 -12 19 -18 27 -5 7 -11 19 -12 26 -2 14 -123 205 -130 205 -8 0 33 -73 80 -145 l 46 -70 -43 48 c -39 42 -105 156 -123 212 -4 13 -8 16 -11 7 -10 -27 83 -196 142 -260 52 -56 87 -82 69 -50 z m 1831 86 c -7 7 -55 -39 -55 -52 0 -5 13 3 30 19 16 16 28 31 25 33 z m -4885 -23 c -7 9 -15 13 -18 10 -3 -2 1 -11 8 -20 7 -9 15 -13 18 -10 3 2 -1 11 -8 20 z m 25 25 c -16 16 -33 30 -38 30 -4 0 1 -14 13 -30 12 -16 29 -30 38 -30 12 0 9 8 -13 30 z m 4815 -10 c 13 11 21 22 18 25 -2 3 -14 -4 -26 -15 -12 -11 -23 -20 -25 -20 -2 0 -18 20 -36 45 -18 25 -37 45 -42 45 -6 0 9 -22 32 -50 23 -28 45 -50 49 -50 4 0 17 9 30 20 z m -4684 108 c -6 6 -55 -40 -83 -78 -20 -26 -12 -22 30 19 31 30 55 57 53 59 z m 4684 -64 c 0 3 -4 8 -10 11 -6 3 -10 1 -10 -4 0 -6 4 -11 10 -11 6 0 10 2 10 4 z m -1580 31 c 0 16 -169 149 -220 174 -21 10 -21 8 4 -11 78 -61 94 -87 21 -33 -17 12 -50 32 -75 43 l -45 22 27 -23 c 59 -49 117 -88 198 -131 91 -49 90 -48 90 -41 z m 66 51 c -4 14 -9 24 -12 21 -3 -2 -2 -17 2 -31 3 -15 9 -25 11 -22 3 3 2 17 -1 32 z m 1403 -15 c 11 19 11 21 -4 15 -9 -3 -21 -6 -26 -6 -4 0 -6 -7 -3 -15 8 -21 17 -19 33 6 z m -2308 1 c 0 10 2 10 6 0 8 -20 105 -14 182 12 66 22 177 83 168 93 -2 2 -33 -10 -68 -27 -35 -16 -71 -30 -79 -30 -8 0 12 13 45 29 74 36 63 38 -35 7 -41 -14 -88 -28 -105 -32 l -30 -7 30 -7 30 -8 -30 -2 c -72 -7 -184 -6 -230 0 l -50 8 55 2 55 3 -67 7 c -69 9 -160 38 -203 66 -28 19 -34 8 -7 -13 15 -13 15 -13 -4 -4 -12 6 -59 50 -104 98 -93 98 -95 89 -4 -18 77 -92 139 -136 227 -165 82 -26 216 -33 218 -12 z m -2208 121 c 84 111 186 231 206 242 12 7 16 16 12 28 -6 15 -23 -1 -91 -84 -113 -136 -168 -208 -186 -243 -24 -45 0 -22 59 57 z m 4507 -73 c 0 5 -24 38 -53 72 -29 35 -71 88 -94 118 -46 62 -123 139 -123 124 0 -6 41 -60 91 -120 50 -60 107 -130 127 -156 35 -46 52 -59 52 -38 z m -2101 45 c 39 16 69 30 66 33 -2 2 -34 -7 -70 -22 -46 -18 -82 -26 -123 -25 l -57 1 50 8 c 96 14 214 94 314 213 38 46 115 127 172 182 85 80 96 94 61 75 -48 -27 -143 -100 -234 -180 l -62 -55 41 55 c 107 143 153 299 188 629 8 79 15 151 14 160 -2 34 -28 -96 -29 -141 0 -58 -30 -198 -42 -198 -4 0 -19 -22 -32 -50 -18 -37 -21 -50 -10 -50 16 0 16 0 -52 -152 -49 -112 -112 -223 -120 -215 -3 2 9 31 25 63 32 65 56 143 46 152 -6 6 -277 -264 -345 -344 -19 -22 -30 -33 -23 -25 40 54 113 263 113 325 0 16 -2 17 -17 5 -15 -13 -15 -12 -4 6 7 11 27 30 44 43 68 49 70 52 18 25 -119 -61 -229 -202 -247 -315 -4 -21 -10 -40 -14 -43 -21 -13 22 142 55 200 31 53 64 230 35 185 -16 -25 -12 7 6 41 8 17 13 38 11 47 -3 13 -6 12 -14 -8 -11 -27 -90 -110 -103 -110 -5 0 -11 -8 -13 -18 -2 -9 -3 1 0 23 2 22 6 60 8 85 l 5 45 -15 -45 c -27 -79 -37 -181 -32 -305 3 -66 8 -131 12 -145 5 -20 4 -22 -4 -9 -6 9 -17 44 -25 78 -8 34 -22 74 -32 89 -20 30 -69 121 -120 223 -36 72 -64 104 -72 80 -4 -11 -6 -11 -14 0 -17 25 0 -91 26 -176 14 -43 23 -81 21 -83 -5 -5 -52 144 -71 223 -7 33 -14 109 -15 170 -2 99 -3 104 -9 50 -4 -33 -9 -112 -10 -175 l -2 -115 -13 70 c -7 39 -20 144 -30 235 -9 91 -21 181 -26 200 -12 48 -1 -247 12 -324 15 -87 5 -78 -18 16 l -21 83 -1 -67 c -1 -37 6 -97 14 -134 15 -63 15 -102 0 -52 -4 13 -13 36 -20 53 -18 40 -26 80 -30 139 -5 67 -12 68 -20 1 -5 -40 -4 -59 4 -65 7 -4 23 -49 37 -99 25 -94 49 -151 87 -206 17 -23 8 -19 -38 21 -93 79 -119 86 -49 13 33 -35 94 -107 136 -159 93 -118 205 -224 250 -238 54 -17 136 -24 143 -12 4 6 -12 10 -42 11 -47 2 -47 2 16 10 57 7 68 6 110 -17 57 -30 101 -28 200 11 z m -549 48 c 0 5 -84 91 -115 117 -22 19 -26 20 -15 5 37 -52 130 -140 130 -122 z m 720 53 c 23 9 38 19 35 22 -3 3 2 16 11 30 8 13 13 26 10 29 -3 4 0 13 7 22 6 8 -9 -2 -35 -23 -26 -21 -50 -46 -53 -57 -4 -10 -11 -19 -16 -19 -5 0 -9 -4 -9 -10 0 -13 3 -13 50 6 z m 58 0 c 12 8 27 25 33 37 10 18 6 17 -22 -8 -19 -16 -38 -33 -43 -37 -19 -15 9 -8 32 8 z m 227 30 c 65 46 115 72 195 100 l 65 23 -41 0 c -53 1 -163 -32 -198 -60 -14 -11 -29 -18 -34 -15 -4 2 -14 0 -22 -6 -12 -8 -12 -9 3 -4 11 4 16 2 12 -5 -4 -6 -13 -8 -21 -5 -22 9 -43 -4 -37 -22 3 -9 7 -23 9 -30 5 -18 15 -15 69 24 z m -193 53 c 25 32 52 69 59 82 34 65 -58 -48 -105 -129 -17 -29 4 -8 46 47 z m 221 55 c 17 17 25 23 18 14 -28 -37 9 -16 44 24 83 97 174 325 220 553 34 172 85 652 85 813 0 90 33 311 66 447 23 94 23 101 7 112 -21 16 -50 17 -59 1 -4 -6 -6 -30 -6 -52 1 -22 -3 -67 -9 -99 -5 -33 -10 -78 -10 -101 0 -22 -7 -77 -16 -120 -8 -46 -13 -99 -9 -125 4 -30 -1 -74 -13 -126 -10 -44 -33 -165 -50 -270 -52 -315 -61 -363 -71 -387 -9 -20 -9 -18 -5 12 3 19 2 28 -1 20 -4 -8 -13 -30 -22 -48 -10 -22 -13 -47 -8 -78 12 -90 -126 -445 -229 -589 l -45 -63 41 16 c 22 8 54 29 72 46 z m 1172 -16 c -7 9 -44 58 -81 107 -75 100 -197 245 -202 240 -8 -7 25 -55 93 -135 88 -105 162 -204 170 -231 5 -15 10 -18 20 -9 11 10 11 14 0 28 z m -3675 -17 c 0 11 101 150 201 277 27 35 49 69 49 75 -1 15 -42 -32 -180 -204 -80 -101 -105 -140 -97 -148 14 -14 27 -14 27 0 z m 2200 338 c 3 2 -4 -1 -15 -7 -34 -19 -259 -232 -279 -265 -11 -18 50 35 135 118 85 82 156 151 159 154 z m 1625 -270 c 3 5 1 12 -5 16 -6 4 -7 11 -4 17 4 7 2 8 -4 4 -14 -9 -16 -46 -3 -46 6 0 12 4 16 9 z m -1120 136 c 59 83 128 210 123 226 -2 5 -26 -30 -55 -79 -29 -48 -75 -121 -102 -162 -49 -72 -66 -110 -37 -80 8 8 40 51 71 95 z m -2722 -43 c 156 185 199 248 167 248 -7 0 -194 -206 -238 -262 -15 -19 -8 -38 13 -38 7 0 33 24 58 52 z m 3755 -31 c 2 11 -148 189 -239 283 -5 6 -11 3 -15 -7 -5 -15 77 -125 195 -259 34 -39 53 -44 59 -17 z m -3739 158 c 72 85 131 159 131 165 -1 6 -20 -11 -43 -39 -23 -27 -84 -96 -135 -154 -50 -57 -92 -111 -92 -119 0 -8 2 -13 4 -11 2 2 63 73 135 158 z m 1587 -103 c -8 25 -13 50 -10 55 3 5 0 9 -5 9 -6 0 -11 -5 -11 -11 0 -19 32 -110 37 -105 3 3 -2 26 -11 52 z m 2173 -2 c -45 64 -200 236 -222 247 l -22 12 20 -24 c 12 -13 39 -45 60 -70 22 -25 71 -83 109 -127 69 -81 102 -104 55 -38 z m -1810 46 c 0 10 -3 8 -9 -5 -12 -27 -12 -43 0 -25 5 8 9 22 9 30 z m -2095 -4 c 3 8 2 12 -4 9 -6 -3 -10 -10 -10 -16 0 -14 7 -11 14 7 z m 3966 -12 c 0 2 -8 10 -18 17 -15 13 -16 12 -3 -3 13 -17 21 -22 21 -14 z m -1486 111 c 4 27 4 34 -3 20 -13 -31 -24 -93 -12 -75 5 8 12 33 15 55 z m -807 -33 c -3 8 -6 5 -6 -6 -1 -11 2 -17 5 -13 3 3 4 12 1 19 z m 120 134 c -2 3 -97 -17 -97 -19 0 -5 43 -113 48 -121 3 -6 16 23 28 64 13 41 22 75 21 76 z m 782 -26 c 0 52 -15 151 -18 120 -1 -12 -3 -12 -10 -2 -5 9 -11 -9 -15 -50 -4 -34 -9 -82 -12 -105 l -6 -42 31 12 c 30 11 31 14 30 67 z m -2419 2 c 30 35 41 52 26 38 -29 -26 -91 -100 -83 -100 2 0 28 28 57 62 z m 1996 -11 c 14 15 12 19 -13 36 -58 41 -63 39 -63 -28 l 0 -60 31 18 c 17 10 37 25 45 34 z m -830 14 c -4 25 -11 43 -17 40 -12 -8 -12 -37 1 -71 15 -39 24 -22 16 31 z m 2204 -15 c 17 24 19 31 6 21 -16 -13 -20 -11 -47 20 -17 20 -28 42 -25 52 3 14 1 16 -9 7 -10 -8 -13 -7 -11 6 0 9 -5 19 -13 22 -10 3 -11 0 -5 -9 7 -12 5 -12 -9 0 -18 15 -23 26 -7 16 19 -12 10 15 -14 42 -14 16 -38 43 -55 62 -16 19 -35 47 -42 63 -9 22 -14 26 -20 16 -7 -11 -11 -10 -19 2 -7 10 -10 11 -10 2 0 -8 -11 -5 -31 10 -16 12 -25 24 -20 26 6 2 11 9 11 15 0 6 -7 4 -17 -5 -15 -16 -15 -19 1 -43 9 -14 73 -88 140 -164 68 -76 134 -153 147 -170 12 -17 23 -30 24 -28 1 1 12 18 25 37 z m -3054 8 c 16 20 86 104 156 185 134 156 131 150 84 187 -11 8 -17 10 -13 4 4 -6 -3 -20 -15 -30 -12 -11 -48 -55 -81 -99 -33 -44 -62 -79 -66 -78 -3 0 -9 -4 -13 -10 -4 -7 -13 -12 -20 -12 -7 0 -12 -8 -10 -16 1 -9 -6 -23 -15 -30 -17 -13 -17 -12 -4 6 7 11 -1 5 -18 -14 -17 -19 -28 -37 -26 -40 3 -2 12 4 20 15 9 10 6 -2 -7 -28 -12 -26 -25 -45 -30 -42 -4 3 -1 12 7 20 8 9 15 18 15 22 0 4 -10 -3 -22 -15 -21 -22 -21 -23 -3 -43 24 -27 28 -26 61 18 z m 2146 12 c -1 19 -7 40 -14 47 -8 10 -7 13 6 13 12 0 16 9 15 38 -1 20 -4 48 -8 62 -7 25 -7 25 -19 -9 -21 -59 -12 -196 12 -188 6 2 10 19 8 37 z m -838 32 c 15 6 32 27 41 52 9 23 25 52 36 66 l 19 25 -16 -39 c -24 -61 -12 -51 35 28 39 66 219 271 207 236 -46 -141 -49 -154 -43 -229 3 -42 8 -83 12 -93 3 -9 29 -26 56 -38 l 50 -21 41 33 41 32 -47 16 c -50 16 -110 67 -119 100 l -5 20 28 -20 c 18 -13 31 -16 35 -10 3 5 -1 10 -9 10 -32 0 -14 81 21 94 16 6 16 6 0 -12 -9 -10 -17 -24 -17 -30 0 -16 33 -15 48 0 10 10 15 10 22 -2 5 -8 10 -11 10 -6 0 5 6 3 14 -3 19 -16 27 6 13 34 -9 18 -8 18 5 7 18 -15 43 -106 33 -121 -4 -7 0 -8 10 -4 13 4 16 17 13 59 -1 30 -2 54 -1 54 1 0 14 -17 28 -38 26 -37 26 -37 20 -7 -15 71 -46 163 -67 195 -12 19 -22 43 -23 53 -4 43 -161 167 -268 212 -37 15 -41 15 -92 -9 -120 -55 -255 -166 -201 -166 8 0 0 -15 -19 -35 -34 -35 -88 -153 -99 -215 -7 -33 -6 -34 9 -16 14 19 15 17 15 -26 0 -28 6 -50 15 -58 13 -11 15 -7 15 24 0 43 19 83 51 111 l 24 20 -23 -26 c -33 -37 -28 -81 6 -47 7 7 12 9 12 5 0 -4 9 -3 20 3 16 9 22 8 26 -5 3 -8 10 -12 15 -9 14 9 10 36 -8 58 -13 15 -10 14 10 -3 19 -18 27 -34 27 -58 0 -36 13 -43 29 -15 9 15 10 15 11 -4 0 -12 -15 -40 -32 -62 -33 -41 -86 -62 -154 -62 l -24 0 21 -41 c 20 -40 22 -41 59 -35 22 3 51 11 64 18 z m -1334 133 c 51 66 100 129 109 139 9 11 11 16 5 13 -7 -4 -58 -65 -114 -137 -95 -119 -120 -145 -120 -121 0 5 -8 12 -17 15 -13 5 -11 0 7 -19 13 -14 27 -22 30 -18 4 5 49 62 100 128 z m 3320 -132 c 0 2 -12 14 -28 28 l -27 24 24 -27 c 23 -26 31 -33 31 -25 z m -2451 257 c 0 8 -5 4 -10 -10 -6 -14 -12 -72 -14 -130 l -4 -105 14 115 c 7 63 14 122 14 130 z m 2230 -182 c -24 26 -75 88 -114 138 -38 49 -86 107 -107 130 -52 56 -62 87 -42 127 l 15 32 -25 -28 c -36 -39 -33 -61 18 -115 42 -45 94 -108 219 -261 32 -39 63 -71 69 -71 6 0 -9 22 -33 48 z m -2587 14 c 50 73 110 197 102 209 -3 6 -16 -11 -29 -38 -12 -26 -47 -83 -77 -125 l -55 -78 -34 26 c -40 30 -79 52 -64 36 23 -24 101 -82 111 -82 6 0 27 24 46 52 z m 720 53 c 0 5 -5 11 -11 13 -6 2 -11 -4 -11 -13 0 -9 5 -15 11 -13 6 2 11 8 11 13 z m 598 1 c 0 9 -5 14 -12 12 -18 -6 -21 -28 -4 -28 9 0 16 7 16 16 z m 357 16 c -3 8 -6 5 -6 -6 -1 -11 2 -17 5 -13 3 3 4 12 1 19 z m -920 30 c -3 8 -6 5 -6 -6 -1 -11 2 -17 5 -13 3 3 4 12 1 19 z m -377 8 c 0 6 -2 10 -4 10 -3 0 -8 -4 -11 -10 -3 -6 -1 -10 4 -10 6 0 11 4 11 10 z m 1326 319 l -5 193 -45 52 c -24 28 -59 69 -78 90 l -34 39 -71 -21 c -49 -15 -75 -29 -87 -47 -21 -32 -21 -38 11 -88 30 -48 76 -185 66 -200 -4 -6 -1 -7 7 -2 9 6 10 2 5 -15 -5 -16 -4 -20 5 -15 9 6 10 -1 5 -26 -4 -25 -3 -30 4 -19 9 13 11 12 11 -4 0 -11 3 -17 6 -13 12 12 -46 203 -111 362 l -8 20 22 -20 c 13 -11 33 -40 46 -65 27 -54 75 -202 75 -233 0 -12 4 -29 10 -37 7 -12 11 -10 18 10 6 14 20 45 31 70 21 45 21 45 17 10 -3 -19 -8 -67 -12 -105 l -6 -70 33 -15 c 23 -10 40 -28 53 -55 19 -40 19 -40 28 -15 6 15 8 101 4 219 z m -1171 -14 c 15 50 42 128 62 175 40 96 49 135 35 144 -5 3 -36 -76 -71 -181 -52 -157 -63 -201 -66 -273 l -4 -85 9 65 c 5 36 21 106 35 155 z m -695 -190 c -7 9 -15 13 -17 11 -7 -7 7 -26 19 -26 6 0 6 6 -2 15 z m 2330 5 c 0 6 -4 10 -10 10 -6 0 -10 -4 -10 -10 0 -6 4 -10 10 -10 6 0 10 4 10 10 z m -2037 14 c 4 10 0 12 -14 9 -10 -3 -16 -9 -13 -14 8 -13 21 -11 27 5 z m 559 106 c 6 8 -6 -2 -26 -22 -20 -21 -36 -48 -36 -60 0 -18 6 -13 26 22 14 25 30 52 36 60 z m -794 -12 c 28 37 79 102 114 144 207 253 299 370 296 378 -3 10 -109 -112 -157 -182 -17 -27 -35 -48 -39 -48 -5 0 -35 -35 -67 -77 -33 -42 -95 -118 -138 -169 -43 -52 -76 -98 -72 -104 3 -5 8 -10 9 -10 2 0 26 30 54 68 z m 2302 9 c 0 15 -14 10 -15 -5 -2 -23 -18 -51 -26 -46 -6 3 -8 11 -6 18 3 6 -17 36 -44 66 -48 55 -49 55 -49 25 0 -22 13 -42 52 -82 l 52 -52 18 30 c 10 16 18 37 18 46 z m -1984 -9 c -3 2 -17 -3 -32 -13 -21 -13 -24 -19 -13 -26 10 -6 20 -2 32 12 10 12 15 24 13 27 z m -509 4 c -3 7 -5 2 -5 -12 0 -14 2 -19 5 -12 2 6 2 18 0 24 z m 1727 16 c -3 26 -19 92 -35 147 -32 110 -36 140 -12 83 8 -21 19 -38 24 -38 5 0 14 -10 20 -22 9 -21 9 -21 4 4 -6 33 -69 140 -77 132 -3 -3 -11 10 -17 28 -6 18 -22 46 -36 63 l -26 30 24 -50 c 14 -27 41 -102 60 -165 32 -104 43 -146 62 -232 9 -47 17 -31 9 20 z m 383 28 c -2 24 -1 44 4 44 13 0 11 47 -1 55 -7 4 -8 -3 -4 -22 4 -15 4 -25 0 -22 -6 5 -35 160 -36 187 0 7 4 10 10 7 14 -8 12 7 -8 98 -10 43 -21 75 -25 71 -4 -4 -7 9 -7 29 0 39 -9 50 -29 37 -11 -6 -7 -41 22 -186 20 -99 41 -223 48 -276 9 -69 16 -93 22 -82 5 9 7 36 4 60 z m -2131 2 c -17 16 -18 16 -5 -5 7 -12 15 -20 18 -17 3 2 -3 12 -13 22 z m 2557 -4 c 7 -4 9 -4 5 0 -3 4 -9 7 -12 7 -4 -1 -38 37 -77 84 -39 47 -72 85 -75 85 -2 0 -4 -8 -4 -18 0 -26 144 -188 148 -167 2 8 9 12 15 9 z m -2409 34 c 24 26 68 79 97 117 43 57 241 303 296 366 12 14 12 17 -1 22 -18 7 -91 -66 -91 -91 0 -9 -5 -17 -12 -17 -13 0 -113 -118 -190 -225 -26 -36 -64 -85 -85 -109 -21 -24 -38 -50 -38 -57 0 -7 -12 -22 -26 -33 -18 -15 -22 -21 -11 -21 9 0 36 21 61 48 z m 146 -23 c 13 14 21 25 18 25 -2 0 -15 -11 -28 -25 -13 -14 -21 -25 -18 -25 2 0 15 11 28 25 z m 284 41 c 21 24 36 47 33 50 -9 10 -25 -4 -57 -52 -39 -56 -27 -55 24 2 z m 432 5 c 16 17 48 42 72 56 23 14 42 32 42 41 -1 10 -23 41 -49 70 l -49 53 -16 -48 c -17 -53 -46 -171 -46 -191 0 -20 14 -14 46 19 z m 668 31 c -12 53 -27 104 -50 177 -3 10 -23 -5 -60 -45 l -55 -59 27 -20 c 15 -11 52 -41 83 -67 31 -26 59 -47 63 -47 3 -1 0 27 -8 61 z m -1454 -27 c 13 14 19 25 13 25 -6 0 -18 -11 -27 -25 -9 -14 -15 -25 -13 -25 2 0 14 11 27 25 z m 2171 18 c -8 8 -11 7 -11 -4 0 -20 13 -34 18 -19 3 7 -1 17 -7 23 z m -2110 45 c 75 85 236 307 212 292 -17 -11 -96 -113 -154 -201 -14 -21 -29 -36 -33 -34 -3 3 -4 2 -1 -1 2 -4 -7 -15 -20 -26 -28 -21 -51 -58 -37 -58 5 0 19 12 33 28 z m 2303 69 c -32 42 -64 86 -71 98 -9 15 -12 16 -13 5 0 -9 23 -43 51 -75 28 -33 58 -72 67 -87 9 -15 18 -25 20 -23 3 2 -22 39 -54 82 z m -1916 -38 c 19 26 19 31 6 42 -8 6 -16 10 -17 8 -1 -2 -10 -21 -20 -41 -21 -47 -2 -53 31 -9 z m -637 19 c 13 15 12 16 -3 3 -17 -13 -22 -21 -14 -21 2 0 10 8 17 18 z m 998 187 c 26 46 29 56 12 41 -30 -27 -84 -114 -77 -125 3 -5 -1 -28 -9 -51 -8 -23 -15 -50 -14 -59 0 -9 12 18 27 59 15 41 43 102 61 135 z m 157 -154 c 3 6 27 24 52 40 62 39 113 39 175 -1 26 -16 49 -30 51 -30 2 0 6 28 8 63 3 35 12 77 21 93 12 23 14 40 7 69 -10 42 -23 55 -60 55 -14 0 -32 4 -39 9 -10 6 0 8 27 4 32 -4 43 -2 48 10 7 20 -45 130 -85 178 -37 44 -70 52 -110 28 -38 -23 -98 -112 -116 -173 l -14 -46 37 -1 c 34 -2 35 -2 7 -6 -42 -7 -53 -19 -61 -68 -4 -32 -2 -50 10 -67 11 -15 16 -45 16 -95 0 -68 9 -89 26 -62 z m 354 44 c 13 14 21 25 18 25 -2 0 -15 -11 -28 -25 -13 -14 -21 -25 -18 -25 2 0 15 11 28 25 z m -427 3 c -11 9 -31 33 -42 52 -12 19 -21 30 -21 24 0 -18 59 -94 73 -94 6 0 2 8 -10 18 z m 1515 60 c 34 33 62 63 62 68 0 4 -27 -18 -60 -51 -33 -32 -61 -57 -63 -54 -52 73 -149 199 -153 199 -7 0 1 -13 74 -110 36 -46 67 -91 69 -97 3 -7 6 -13 7 -13 0 0 29 26 64 58 z m -2543 4 c 55 71 67 88 61 88 -2 0 -28 -29 -56 -65 l -52 -66 -37 43 c -20 23 -35 47 -33 53 2 5 0 7 -4 3 -4 -4 -13 -3 -21 3 -7 6 -13 8 -13 3 0 -9 101 -114 110 -114 3 1 23 24 45 52 z m 1906 7 c -12 16 -31 47 -44 69 -16 28 -27 37 -38 33 -13 -5 -6 -19 38 -74 54 -67 86 -88 44 -28 z m 478 9 c -29 38 -53 62 -63 62 -5 0 8 -18 29 -40 41 -42 57 -52 34 -22 z m -2255 48 c 9 22 -3 32 -14 14 -12 -19 -12 -30 -1 -30 5 0 12 7 15 16 z m 715 109 l -61 115 79 0 c 89 1 127 12 200 60 36 24 57 46 67 71 9 21 20 40 26 44 5 3 10 10 10 15 0 5 -29 -11 -64 -35 -97 -68 -178 -95 -285 -95 l -89 0 60 -118 c 68 -133 99 -182 110 -176 4 2 -20 56 -53 119 z m 793 -20 c 43 85 100 178 116 190 9 8 -15 10 -85 7 -119 -5 -168 11 -291 92 -47 31 -77 45 -72 35 6 -10 14 -21 20 -24 5 -3 7 -12 4 -19 -8 -20 45 -67 117 -106 56 -29 76 -35 151 -38 49 -3 88 -6 88 -8 0 -2 -25 -48 -55 -102 -30 -54 -55 -105 -55 -113 1 -20 26 14 62 86 z m -1530 -1 c 7 13 7 16 -1 12 -6 -4 -18 -22 -27 -39 -14 -30 -14 -31 1 -12 9 11 21 28 27 39 z m -282 -2 c -19 16 -44 38 -55 47 -24 22 -65 44 -65 36 0 -4 -12 2 -28 12 -34 24 -81 45 -107 48 -11 2 -58 13 -104 25 -75 19 -105 20 -89 4 3 -3 47 -14 97 -24 101 -20 198 -65 306 -139 76 -52 101 -57 45 -9 z m 640 3 c 19 19 29 35 23 35 -6 0 -23 -16 -37 -35 -15 -19 -25 -35 -23 -35 1 0 18 16 37 35 z m 328 4 c -12 22 -24 38 -26 36 -7 -6 28 -75 38 -75 6 0 0 18 -12 39 z m 891 -13 c 17 37 8 39 -13 4 -9 -17 -13 -30 -8 -30 5 0 14 12 21 26 z m 208 -4 c -3 8 -6 5 -6 -6 -1 -11 2 -17 5 -13 3 3 4 12 1 19 z m 789 8 c 78 54 207 110 317 137 59 15 107 31 107 36 0 6 -15 7 -38 2 -20 -4 -50 -7 -67 -6 -17 0 -23 -3 -15 -6 14 -6 -63 -33 -100 -35 -8 -1 -17 -4 -20 -8 -3 -3 -28 -17 -55 -30 -69 -33 -184 -100 -191 -111 -11 -18 19 -8 62 21 z m -2486 -11 c 0 6 -4 13 -10 16 -6 3 -10 -1 -10 -9 0 -9 4 -16 10 -16 6 0 10 4 10 9 z m 560 17 c -22 57 -29 63 -77 66 -39 2 -48 7 -51 23 -2 14 0 16 6 7 6 -9 15 -7 35 11 31 26 33 40 11 82 -14 28 -14 30 8 47 23 18 23 18 -24 18 l -47 0 3 -62 c 3 -50 2 -54 -4 -23 l -7 40 -1 -45 c -2 -44 20 -155 32 -167 7 -7 69 -20 103 -22 20 -1 21 2 13 25 z m 1045 -12 l 40 12 12 74 c 6 41 11 102 11 135 -1 65 -4 52 -13 -67 l -7 -77 -50 -3 c -50 -3 -52 -4 -69 -46 l -18 -42 27 1 c 15 0 45 6 67 13 z m -1932 49 c -50 42 -206 126 -273 148 -75 24 -220 50 -220 39 0 -4 26 -11 57 -15 118 -15 261 -72 379 -153 64 -44 103 -57 57 -19 z m 2790 14 c 101 61 247 122 349 144 54 12 95 25 93 29 -7 11 -193 -24 -209 -40 -6 -6 -18 -10 -28 -10 -10 0 -18 -5 -18 -11 0 -6 -7 -8 -16 -5 -8 3 -13 2 -10 -2 3 -5 -21 -17 -52 -27 -31 -11 -72 -31 -91 -47 -19 -15 -38 -25 -43 -22 -10 6 -48 -24 -48 -38 0 -13 10 -10 73 29 z m -2397 41 c 33 39 38 48 15 27 -32 -30 -77 -85 -68 -85 3 0 26 26 53 58 z m 338 -49 c 6 10 -75 77 -88 73 -5 -2 -5 5 -1 15 23 55 45 126 42 130 -3 2 -17 -17 -31 -42 -15 -25 -31 -45 -35 -45 -5 0 -12 26 -16 58 -6 50 -3 65 24 125 35 77 44 141 11 72 -11 -22 -26 -56 -34 -75 l -14 -35 -1 42 c -1 28 -7 45 -17 51 -15 8 -16 17 -4 88 7 44 15 102 17 129 l 4 50 -20 -30 c -17 -26 -21 -50 -23 -160 -1 -94 3 -147 14 -190 9 -33 22 -94 30 -135 l 13 -75 54 -27 c 59 -30 67 -32 75 -19 z m 1356 30 c 9 10 20 16 27 14 15 -5 31 44 38 120 4 34 16 93 27 130 18 61 19 80 11 193 -7 94 -14 129 -26 142 -16 15 -17 15 -17 -4 0 -11 7 -71 15 -134 13 -101 13 -115 0 -130 -8 -9 -15 -36 -16 -61 l -1 -44 -24 74 c -13 41 -31 82 -40 90 -15 15 -16 14 -11 -4 3 -11 19 -58 36 -105 32 -90 37 -129 21 -161 -15 -27 -24 -24 -44 17 -25 54 -28 37 -7 -40 10 -37 14 -63 8 -57 -8 8 -20 2 -44 -21 -44 -42 -44 -61 -1 -46 18 5 40 18 48 27 z m 665 21 c 22 15 60 37 83 49 24 12 41 25 38 28 -6 7 -131 -66 -166 -97 -30 -26 -10 -17 45 20 z m -408 28 c -3 9 -5 1 -5 -18 0 -19 2 -27 5 -18 2 10 2 26 0 36 z m 263 -44 c 0 2 -8 10 -18 17 -15 13 -16 12 -3 -3 13 -17 21 -22 21 -14 z m -638 71 c 1 36 2 75 2 87 1 20 -4 23 -33 23 -19 0 -36 -6 -39 -13 -2 -6 4 -12 12 -12 27 0 29 -25 7 -71 -31 -63 -28 -79 14 -79 l 35 0 2 65 z m -2022 -10 c 0 2 -10 9 -22 15 -22 11 -22 10 -4 -4 21 -17 26 -19 26 -11 z m 394 108 c -2 7 -18 21 -35 31 -27 16 -32 16 -47 3 -9 -9 -25 -29 -35 -46 l -17 -29 36 -30 36 -30 34 44 c 18 24 31 50 28 57 z m -854 -68 c 0 10 -9 14 -25 13 -14 -1 -25 -8 -25 -15 0 -7 11 -13 25 -13 15 0 25 6 25 15 z m 3226 16 c 3 6 -5 3 -20 -6 -14 -10 -26 -19 -26 -22 0 -7 39 17 46 28 z m 589 -21 c -3 6 -15 10 -26 10 -10 0 -19 -4 -19 -10 0 -6 12 -10 26 -10 14 0 23 4 19 10 z m -770 14 c 16 12 18 19 10 42 -6 15 -15 29 -20 31 -12 4 -45 -48 -45 -71 0 -20 30 -21 55 -2 z m 245 12 c 0 2 -9 0 -20 -6 -11 -6 -20 -13 -20 -16 0 -2 9 0 20 6 11 6 20 13 20 16 z m 213 8 c 70 23 93 35 78 39 -12 3 -19 1 -16 -3 3 -5 -12 -11 -32 -15 -33 -6 -147 -52 -133 -54 3 0 49 15 103 33 z m -3506 28 c -3 8 -6 5 -6 -6 -1 -11 2 -17 5 -13 3 3 4 12 1 19 z m 728 48 c 25 32 45 67 45 78 0 10 -33 54 -73 98 l -74 78 -84 -38 c -46 -21 -113 -54 -149 -74 l -65 -36 35 -6 c 49 -9 174 -72 245 -123 33 -24 63 -42 67 -40 4 2 28 30 53 63 z m 522 22 c -2 18 -4 4 -4 -32 0 -36 2 -50 4 -32 2 17 2 47 0 64 z m 1963 -17 c 52 30 128 67 168 81 70 26 73 26 92 9 11 -10 23 -16 26 -13 9 10 -49 46 -167 102 -161 77 -147 77 -196 -2 -22 -37 -50 -86 -61 -108 l -21 -41 27 -42 c 14 -22 29 -41 32 -41 3 0 48 25 100 55 z m -319 118 c 25 90 30 120 21 129 -9 9 -15 7 -27 -8 -8 -10 -12 -25 -10 -31 2 -7 -5 -18 -16 -24 -11 -6 -18 -13 -15 -16 3 -3 0 -11 -8 -17 -15 -12 -36 -89 -36 -130 0 -14 10 -36 22 -48 l 22 -22 7 25 c 4 13 22 77 40 142 z m 802 -148 c 44 8 55 21 26 28 -12 3 -18 3 -15 -1 4 -3 -17 -14 -46 -24 -51 -17 -47 -17 35 -3 z m -2097 29 c -37 22 -76 58 -71 65 2 5 -13 22 -35 40 -22 18 -40 35 -40 39 0 4 25 34 56 67 73 78 234 293 234 312 0 9 -12 -2 -26 -23 -37 -55 -103 -132 -220 -259 l -102 -111 101 -81 c 68 -54 105 -78 112 -71 7 7 4 14 -9 22 z m -720 33 c -33 28 -48 29 -71 3 -17 -19 -17 -20 1 -20 10 0 32 -9 49 -20 27 -18 30 -18 39 -3 7 12 2 22 -18 40 z m 1394 23 c 49 40 90 75 90 80 0 5 -8 15 -18 22 -45 33 -171 182 -238 282 -87 130 -98 127 -19 -6 62 -102 101 -153 189 -246 32 -34 57 -62 55 -63 -2 0 -13 -2 -23 -4 -11 -2 -29 -14 -40 -26 -19 -21 -19 -22 -1 -8 21 17 53 36 45 27 -3 -3 -40 -33 -82 -67 -43 -34 -78 -64 -78 -67 0 -13 33 8 120 76 z m 1269 -34 c 9 10 -53 -6 -63 -17 -6 -5 4 -5 24 1 18 5 35 12 39 16 z m 17 12 c -17 16 -18 16 -5 -5 7 -12 15 -20 18 -17 3 2 -3 12 -13 22 z m -1476 9 c 0 20 -46 86 -69 97 -25 13 -31 13 -50 0 -20 -14 -20 -16 -5 -32 36 -37 124 -83 124 -65 z m -336 23 c 50 22 71 44 62 65 -8 23 -59 19 -82 -7 -19 -24 -44 -64 -44 -73 0 -10 21 -5 64 15 z m -1687 6 c -3 3 -12 4 -19 1 -8 -3 -5 -6 6 -6 11 -1 17 2 13 5 z m 3598 23 c 54 11 76 19 55 19 -34 0 -190 -35 -160 -36 8 -1 56 7 105 17 z m -3510 11 c -17 4 -53 7 -80 7 l -50 0 45 -7 c 25 -4 61 -7 80 -7 l 35 -1 -30 8 z m 3366 4 c -9 11 -5 16 17 25 38 16 182 51 209 51 12 0 24 3 26 8 9 14 -308 327 -344 340 -28 11 7 -29 146 -166 85 -84 155 -157 155 -163 0 -25 -33 -2 -101 69 -41 42 -112 113 -157 157 l -84 80 -70 -73 c -56 -60 -67 -76 -57 -88 9 -11 8 -19 -4 -37 -17 -26 -33 -12 211 -185 48 -33 73 -42 53 -18 z m -406 81 c 32 48 39 65 27 63 -15 -3 -81 -109 -82 -132 0 -14 7 -5 55 69 z m -2322 -41 c -11 19 -75 88 -99 106 -21 16 6 -19 65 -82 37 -40 47 -47 34 -24 z m 1161 9 c 15 11 16 18 5 60 l -11 47 -54 0 c -53 0 -53 0 -63 -38 -14 -47 -14 -55 1 -70 16 -16 100 -15 122 1 z m 517 85 c 17 47 20 71 16 134 -3 42 -10 84 -15 95 -8 13 -9 1 -5 -44 6 -62 -19 -197 -38 -209 -5 -3 -9 -17 -9 -31 0 -40 25 -12 51 55 z m -1111 -57 c 0 7 -10 44 -21 83 -17 56 -20 88 -17 156 5 85 5 85 -9 40 -19 -62 -13 -203 11 -252 18 -37 36 -50 36 -27 z m -555 179 c 11 8 273 112 313 125 13 4 22 9 19 11 -4 4 -150 -47 -254 -90 -97 -40 -403 -201 -403 -211 0 -4 309 153 325 165 z m 223 -125 c 3 37 -8 97 -27 148 l -10 25 -80 -30 -80 -31 24 -30 c 29 -38 146 -128 160 -123 5 1 11 20 13 41 z m 355 13 c -14 101 -8 181 21 257 15 38 23 65 18 60 -16 -17 -50 -119 -62 -185 -9 -49 -9 -79 0 -127 16 -80 35 -85 23 -5 z m 1042 26 c 7 59 -16 191 -40 233 -9 15 -13 19 -10 8 29 -89 36 -143 30 -204 -4 -36 -11 -75 -15 -87 -5 -12 -6 -25 -2 -29 12 -12 31 27 37 79 z m -612 44 c -3 12 -9 22 -14 22 -11 0 -29 -68 -28 -110 l 1 -35 23 50 c 15 30 22 59 18 73 z m 203 -100 c -2 9 -10 44 -16 76 -8 41 -15 55 -21 45 -14 -23 -10 -57 11 -99 21 -41 35 -53 26 -22 z m 1069 62 c -12 19 -35 10 -35 -12 0 -13 -3 -34 -6 -48 -5 -21 -2 -19 20 13 15 20 24 42 21 47 z m 185 -46 c 0 10 -196 110 -298 153 -144 60 -362 132 -362 119 0 -2 51 -21 112 -41 108 -36 276 -107 458 -194 93 -44 90 -43 90 -37 z m -1392 78 l 5 22 8 -22 c 14 -37 36 -26 53 26 16 51 46 176 46 195 0 8 -28 13 -87 15 -48 2 -92 6 -97 9 -14 9 -1 -93 24 -186 22 -81 37 -100 48 -59 z m 1394 133 c 6 11 -9 -2 -33 -29 -24 -27 -48 -56 -52 -65 -12 -22 71 69 85 94 z m -2202 -22 c 0 12 -6 17 -17 15 -20 -4 -28 -30 -18 -56 6 -16 8 -15 21 2 8 11 14 28 14 39 z m 1680 -18 c 0 15 -38 40 -47 31 -3 -3 2 -17 11 -31 17 -26 36 -26 36 0 z m -1665 106 c 36 18 24 21 -16 4 -13 -5 -20 3 -31 36 -15 46 -38 64 -38 30 0 -27 26 -91 37 -90 4 0 26 9 48 20 z m 1702 35 c 26 106 26 99 9 85 -9 -8 -21 -32 -28 -55 -17 -61 -22 -65 -70 -55 -55 13 -61 3 -7 -11 24 -6 49 -13 54 -15 21 -7 30 3 42 51 z m -1132 93 c 6 11 193 583 235 720 42 138 42 138 110 3 23 -45 44 -82 46 -82 2 0 23 15 47 33 94 72 238 108 292 73 58 -38 9 -91 -122 -131 -176 -54 -242 -104 -283 -212 -17 -45 -21 -72 -17 -122 20 -264 338 -375 627 -220 41 22 81 46 88 53 10 10 1 32 -48 113 -33 56 -60 106 -60 112 0 16 -8 14 -44 -14 -80 -61 -218 -101 -264 -76 -26 14 -31 71 -8 90 8 6 58 25 112 42 248 78 324 152 324 319 0 123 -50 199 -167 256 -52 26 -71 29 -173 32 -135 4 -202 -10 -326 -68 l -82 -38 9 32 c 17 57 20 56 -124 56 l -132 0 -26 -73 -26 -72 -127 -3 c -69 -1 -126 -1 -126 1 0 9 -22 124 -26 139 -5 15 -18 18 -92 18 -89 0 -277 13 -367 25 l -50 7 -99 -163 -99 -162 -25 29 c -43 52 -52 87 -52 197 l 0 104 -98 12 c -53 7 -112 15 -130 18 l -32 5 0 -424 c 0 -234 3 -452 6 -485 l 7 -61 96 -12 c 53 -6 109 -13 125 -13 l 30 -2 -3 190 -3 190 94 -136 c 150 -219 181 -258 203 -259 11 0 81 -7 155 -15 74 -8 136 -12 138 -10 2 2 -58 81 -134 175 -77 94 -157 194 -180 223 l -41 51 31 47 c 107 162 239 349 247 349 4 0 20 -39 35 -88 25 -83 117 -383 190 -616 19 -60 34 -115 34 -122 0 -23 24 -29 150 -35 69 -3 130 -6 137 -7 6 -1 14 2 18 7 z m 1575 37 c 62 16 220 93 220 107 0 5 -15 35 -34 66 -19 31 -46 80 -60 108 l -26 53 -48 -37 c -92 -71 -199 -100 -247 -69 -22 14 -26 24 -23 54 l 3 37 135 47 c 147 52 198 82 247 146 39 51 53 98 53 177 0 111 -35 179 -123 239 -92 63 -213 80 -352 51 -72 -15 -257 -98 -288 -130 -17 -17 -17 -19 6 -44 14 -14 46 -63 72 -108 l 47 -82 42 34 c 57 46 163 95 222 101 64 7 98 -11 102 -53 4 -42 -30 -65 -163 -108 -172 -56 -241 -109 -279 -215 -24 -65 -18 -167 12 -225 42 -82 134 -147 234 -164 62 -11 170 -4 248 15 z m -1223 1015 c 129 40 199 195 142 319 -27 60 -64 98 -124 126 -176 83 -385 -77 -344 -265 31 -146 175 -225 326 -180 z m 405 -1 l 158 0 0 65 0 65 -66 0 -67 0 7 158 c 3 86 2 163 -2 170 -6 9 -28 12 -73 10 l -64 -3 -1 -140 c -1 -77 -2 -155 -3 -173 l -1 -32 -60 0 -60 0 0 -66 0 -67 38 7 c 20 3 108 6 194 6 z m -834 20 c 45 28 67 80 52 126 -7 19 -22 42 -34 51 l -23 17 31 21 c 81 54 57 183 -39 215 -32 11 -303 30 -317 23 -5 -2 -8 -110 -8 -239 l 0 -234 152 0 c 136 0 157 2 186 20 z M 4758 -4653 c 7 3 16 2 19 -1 4 -3 -2 -6 -13 -5 -11 0 -14 3 -6 6 z M 5108 -4653 c 6 2 18 2 24 0 7 -3 2 -5 -12 -5 -14 0 -19 2 -12 5 z M 4718 -4643 c 7 3 16 2 19 -1 4 -3 -2 -6 -13 -5 -11 0 -14 3 -6 6 z M 4670 -4630 c -8 5 -10 10 -5 10 5 0 17 -5 25 -10 8 -5 10 -10 5 -10 -5 0 -17 5 -25 10 z M 4768 -4545 c -56 20 -85 43 -123 95 -47 65 -44 72 6 13 56 -67 87 -90 126 -98 18 -3 33 -10 33 -15 0 -6 -1 -10 -2 -9 -2 0 -19 6 -40 14 z M 5807 -3730 c -3 11 -1 20 4 20 5 0 9 -9 9 -20 0 -11 -2 -20 -4 -20 -2 0 -6 9 -9 20 z M 3106 -4391 c -3 5 1 11 9 14 9 4 12 1 8 -9 -6 -16 -10 -17 -17 -5 z M 5505 -3390 c -10 16 -24 70 -19 70 3 0 14 -5 25 -10 15 -9 19 -7 19 6 0 8 -13 21 -29 27 -21 8 -37 29 -65 85 -20 41 -36 75 -34 77 2 1 18 7 35 13 31 10 34 9 56 -21 92 -124 107 -151 107 -189 0 -38 -1 -39 -22 -24 -20 14 -23 13 -44 -15 -13 -19 -25 -26 -29 -19 z M 5701 -3144 c 0 11 3 14 6 6 3 -7 2 -16 -1 -19 -3 -4 -6 2 -5 13 z M 4670 -3318 c 0 17 2 18 15 8 8 -7 15 -14 15 -15 0 -2 -7 -5 -15 -9 -10 -4 -15 1 -15 16 z M 5226 -3335 c -14 10 -17 18 -10 25 7 7 14 3 22 -15 13 -29 13 -29 -12 -10 z M 4860 -2976 c 0 2 7 7 16 10 8 3 12 2 9 -4 -6 -10 -25 -14 -25 -6 z M 4481 -2856 c -10 11 5 14 86 18 104 4 137 16 231 80 23 16 42 25 42 20 0 -14 -114 -91 -157 -106 -60 -21 -189 -28 -202 -12 z M 5240 -2851 c -66 21 -199 105 -186 118 2 3 24 -8 48 -25 94 -64 127 -76 230 -80 54 -2 95 -8 92 -13 -6 -11 -149 -10 -184 0 z M 3718 -2675 c 2 14 6 25 8 25 2 0 4 -11 4 -25 0 -14 -4 -25 -9 -25 -4 0 -6 11 -3 25 z M 4535 -2624 l -40 36 40 -28 c 53 -37 61 -44 49 -44 -5 0 -27 16 -49 36 z M 5099 -2632 l -24 27 27 -24 c 26 -23 33 -31 25 -31 -2 0 -14 12 -28 28 z M 4800 -2615 c 13 14 26 25 28 25 3 0 -5 -11 -18 -25 -13 -14 -26 -25 -28 -25 -3 0 5 11 18 25 z M 4030 -2451 c 0 6 4 13 10 16 6 3 10 -1 10 -9 0 -9 -4 -16 -10 -16 -6 0 -10 4 -10 9 z M 4570 -1754 c 0 5 -14 61 -30 124 -17 63 -30 121 -30 128 0 8 21 12 71 12 68 0 70 -1 63 -22 -4 -13 -20 -72 -35 -131 -24 -98 -38 -137 -39 -111 z M 4928 -899 c -53 30 -59 121 -11 165 57 53 157 13 170 -68 5 -33 2 -41 -30 -73 -28 -28 -43 -35 -73 -35 -22 0 -47 5 -56 11 z M 4440 -884 l 0 36 48 -7 c 57 -8 62 -11 62 -35 0 -22 -19 -30 -71 -30 -38 0 -39 1 -39 36 z M 4440 -715 c 0 33 2 35 32 34 69 -3 93 -13 93 -39 0 -24 -3 -25 -63 -28 l -62 -3 0 36 z M 4205 -4881 c -55 15 -119 50 -163 88 l -43 38 22 65 c 12 36 32 88 45 117 13 28 24 58 24 65 0 7 -35 31 -76 53 -148 78 -408 267 -494 359 l -24 27 29 29 30 29 90 -80 c 104 -92 282 -216 406 -283 l 86 -46 33 90 c 17 50 34 109 37 131 3 21 8 39 12 39 3 0 20 -13 37 -29 25 -23 33 -40 39 -82 20 -149 121 -310 248 -400 78 -54 77 -55 -8 -34 -81 19 -105 19 -105 -2 0 -25 -31 -103 -40 -98 -3 2 -6 -5 -6 -17 1 -11 -6 -24 -14 -28 -8 -4 -25 -12 -37 -18 -31 -16 -93 -22 -128 -13 z m 100 31 c 4 6 -10 8 -37 4 -27 -4 -59 0 -88 10 -45 15 -72 14 -29 -2 13 -5 31 -12 39 -15 26 -9 109 -8 115 3 z m -18 26 c 19 5 43 47 43 75 0 5 -15 13 -32 18 -28 9 -24 10 22 5 73 -8 61 2 -34 26 -82 21 -131 15 -61 -7 l 40 -13 -41 6 c -39 5 -42 3 -54 -26 -7 -18 -13 -39 -13 -47 0 -7 -5 -12 -11 -9 -43 17 -46 17 -52 2 -9 -22 2 -32 19 -17 11 8 21 8 43 -4 30 -15 91 -19 131 -9 z m -205 149 c 3 14 1 28 -3 31 -5 3 -9 -9 -9 -25 0 -38 6 -40 12 -6 z m 237 23 c 14 48 14 52 -3 52 -14 0 -66 -58 -66 -73 0 -3 10 -8 22 -10 13 -2 26 -5 30 -6 4 0 12 16 17 37 z m -24 102 c 3 6 1 10 -4 10 -6 0 -11 -4 -11 -10 0 -6 2 -10 4 -10 3 0 8 4 11 10 z M 5647 -4739 c -9 6 -27 7 -40 4 -17 -5 -19 -4 -7 4 20 14 57 14 65 0 10 -15 2 -19 -18 -8 z M 5539 -4689 c -10 10 -16 25 -13 34 8 20 14 19 52 -14 l 33 -28 -27 -6 c -18 -3 -32 1 -45 14 z M 3995 -4204 c -70 35 -98 54 -92 60 4 4 118 -54 131 -67 6 -5 18 -9 27 -9 10 0 21 -4 24 -10 11 -18 -19 -9 -90 26 z M 4070 -4133 c -25 9 -47 19 -50 22 -3 3 -18 13 -34 21 -31 16 -52 60 -42 87 6 14 12 11 40 -16 18 -18 40 -33 49 -35 8 -1 34 -15 56 -30 23 -16 44 -26 47 -23 7 7 -110 122 -132 131 -8 3 -14 9 -14 13 0 5 29 67 64 138 73 151 149 248 171 219 13 -18 8 -53 -15 -109 -7 -18 -13 -82 -14 -157 l -1 -127 -23 21 c -18 18 -22 19 -22 5 0 -9 14 -26 30 -39 34 -25 41 -44 10 -28 -17 9 -22 7 -30 -15 -13 -34 -13 -48 1 -62 16 -16 2 -33 -24 -32 -12 0 -42 8 -67 16 z m 79 95 c 1 5 -8 8 -18 8 -11 0 -29 12 -40 27 -37 46 -31 20 6 -32 32 -43 37 -47 44 -30 4 11 8 23 8 27 z m -9 37 c 0 11 -5 23 -11 27 -15 9 -33 -12 -26 -30 9 -23 37 -20 37 3 z m 20 275 c 0 3 -4 8 -10 11 -6 3 -10 1 -10 -4 0 -6 4 -11 10 -11 6 0 10 2 10 4 z M 2764 -3775 c -16 16 -27 49 -39 120 l -18 99 43 38 c 42 38 67 46 86 29 5 -5 34 -5 64 -1 81 11 125 -12 172 -88 l 20 -32 -21 -69 c -11 -37 -30 -79 -41 -93 -19 -25 -23 -26 -132 -25 -101 1 -115 4 -134 22 z m 51 15 c -4 6 5 8 22 5 99 -15 151 -14 166 3 21 23 47 96 47 131 0 37 -60 96 -89 86 -11 -3 -28 -2 -37 3 -10 6 -33 6 -56 0 -27 -6 -45 -5 -53 2 -10 8 -20 7 -38 -5 -35 -22 -36 -30 -21 -117 14 -81 30 -118 52 -118 7 0 10 4 7 10 z M 2818 -3655 c -9 21 -9 29 4 41 32 32 87 -17 58 -51 -19 -23 -49 -18 -62 10 z M 2915 -3669 c -4 5 -4 21 -1 35 5 17 13 24 31 24 31 0 52 -34 34 -56 -13 -16 -55 -19 -64 -3 z M 6870 -3780 c -21 21 -40 101 -40 169 0 46 3 50 47 85 46 36 47 36 144 36 l 98 0 27 -35 c 27 -35 27 -36 14 -113 -14 -92 -32 -137 -57 -150 -10 -5 -62 -9 -116 -10 -83 -1 -101 2 -117 18 z m 221 27 c 13 13 27 71 34 143 5 48 3 58 -14 74 -13 12 -27 16 -38 11 -10 -4 -49 -8 -86 -10 -51 -1 -75 -7 -95 -22 -24 -19 -27 -26 -25 -80 0 -33 8 -75 16 -94 l 14 -34 92 1 c 51 0 97 6 102 11 z M 6930 -3659 c -14 26 4 51 34 47 16 -2 22 -11 24 -36 3 -28 0 -32 -22 -32 -15 0 -30 8 -36 21 z M 7007 -3674 c -7 8 2 55 13 67 11 12 39 -3 45 -24 11 -33 -35 -66 -58 -43 z M 3126 -3592 c -42 81 -96 183 -121 227 -56 101 -89 185 -119 305 -28 109 -49 237 -41 250 6 10 -17 37 -85 96 -30 26 -113 101 -184 168 l -129 121 182 176 c 165 159 183 180 192 220 21 103 32 130 46 125 8 -4 26 -6 39 -6 19 0 24 -5 24 -27 0 -27 0 -27 45 17 25 24 45 47 45 50 0 3 -42 5 -93 5 -87 0 -98 2 -169 38 -145 71 -218 189 -218 350 1 125 55 225 163 297 73 49 123 64 212 64 133 -1 247 -70 310 -186 27 -50 29 -61 33 -200 l 4 -147 -34 -48 c -50 -70 -54 -83 -14 -41 19 20 38 33 41 28 8 -13 -5 -62 -23 -83 -14 -16 -14 -19 3 -31 17 -12 17 -16 5 -31 -12 -15 -15 -14 -26 12 -12 28 -12 28 -12 -15 1 -24 5 -45 10 -48 4 -3 6 -10 2 -15 -3 -5 0 -17 7 -25 17 -20 2 -31 -22 -15 -12 7 -23 10 -26 7 -3 -3 2 -8 11 -12 22 -8 20 -21 -10 -82 -22 -45 -30 -52 -56 -52 -26 0 -28 -2 -15 -15 16 -16 43 -113 33 -122 -6 -6 -7 -4 -26 66 -17 62 -30 37 -17 -32 9 -48 8 -67 -7 -112 -18 -58 -37 -77 -128 -130 -59 -33 -63 -26 -6 10 24 15 34 25 23 22 -17 -3 -21 1 -23 23 -1 14 5 35 13 46 13 16 16 17 25 4 5 -8 10 -10 11 -5 0 5 7 -3 14 -20 l 13 -30 11 26 c 5 15 14 28 20 30 5 2 7 17 3 34 l -6 30 -7 -30 -7 -30 -1 33 c -4 123 -111 159 -201 67 -26 -27 -31 -38 -22 -47 9 -9 12 -9 12 0 0 21 30 13 39 -11 13 -34 -5 -60 -40 -55 -22 4 -30 0 -35 -15 -5 -16 -8 -17 -15 -6 -11 18 -2 63 23 114 30 62 38 85 29 85 -4 0 -16 -18 -26 -40 -13 -29 -21 -37 -30 -30 -15 13 -27 -1 -54 -61 -15 -32 -21 -38 -21 -21 0 30 -5 28 -42 -14 -27 -30 -32 -43 -30 -83 1 -47 -2 -47 -13 2 -5 24 -8 27 -20 17 -29 -24 -14 -49 90 -148 97 -94 158 -139 178 -134 5 1 6 -2 2 -8 -8 -14 11 -13 35 2 32 21 37 -2 5 -28 -17 -13 -33 -23 -37 -21 -17 5 -169 138 -253 220 l -90 88 285 282 c 295 291 339 337 326 337 -8 0 -335 -309 -528 -499 l -118 -116 83 -83 c 45 -46 131 -124 190 -174 l 108 -91 24 23 c 13 12 30 20 37 18 8 -3 -5 -21 -35 -48 -51 -47 -56 -65 -8 -31 l 30 22 6 -38 c 9 -63 55 -244 89 -353 40 -130 60 -149 133 -131 26 7 89 32 140 56 90 43 149 65 205 79 21 5 31 1 47 -20 22 -28 18 -47 -13 -74 -14 -11 -16 -9 -16 13 0 14 -4 29 -10 32 -6 4 -10 -7 -10 -25 0 -34 -17 -45 -55 -36 -21 5 -24 10 -15 26 17 32 12 32 -48 1 -121 -63 -203 -101 -220 -101 -14 0 -15 2 -2 10 12 8 9 10 -12 10 -16 0 -28 -3 -28 -7 0 -3 36 -76 81 -161 l 80 -154 -26 -39 c -14 -22 -29 -39 -34 -39 -6 0 -44 66 -85 148 z m -339 1254 c -3 8 -6 5 -6 -6 -1 -11 2 -17 5 -13 3 3 4 12 1 19 z m 289 89 c -3 33 -10 68 -16 77 -7 13 -9 10 -5 -13 2 -17 7 -51 10 -77 9 -70 19 -59 11 13 z m -146 134 c 7 8 16 13 20 10 4 -2 15 4 25 15 10 11 28 20 39 19 19 0 19 -1 -4 -12 -25 -11 -25 -11 9 -15 19 -2 53 4 77 13 35 13 43 21 47 48 5 38 -6 48 -44 37 -16 -5 -29 -6 -29 -2 0 3 -17 -10 -37 -29 -21 -18 -30 -25 -20 -13 9 11 17 26 17 32 0 20 -20 13 -30 -10 -12 -32 -50 -85 -50 -72 0 5 5 15 12 22 6 6 8 15 4 19 -4 4 -22 -9 -41 -29 -19 -19 -31 -38 -28 -42 10 -10 20 -7 33 9 z m 92 295 c 71 27 116 63 101 81 -6 8 -14 31 -18 52 -9 46 -24 54 -62 31 l -28 -17 27 24 c 45 41 64 96 30 87 -18 -5 -18 -3 1 36 11 22 24 49 29 58 20 43 -8 103 -57 124 -51 21 -68 19 -62 -8 6 -22 4 -23 -77 -23 -80 0 -82 1 -78 23 5 28 -18 29 -67 3 -40 -21 -68 -90 -50 -123 5 -10 8 -18 7 -18 -52 -9 -108 -7 -123 3 -27 21 -13 92 34 165 33 50 51 66 114 101 42 23 79 41 84 39 4 -1 34 4 66 11 82 18 105 6 218 -113 l 96 -101 8 -65 c 12 -104 26 -117 22 -20 -3 71 -9 95 -35 146 -58 115 -164 179 -293 179 -64 0 -85 -5 -141 -33 -163 -80 -233 -243 -181 -425 12 -44 29 -73 66 -113 101 -111 244 -151 369 -104 z m 205 232 c -3 8 -6 5 -6 -6 -1 -11 2 -17 5 -13 3 3 4 12 1 19 z M 2844 -1590 c -24 9 -58 86 -52 116 4 25 64 54 111 54 46 0 105 -23 113 -45 10 -26 -5 -81 -31 -109 -20 -21 -33 -26 -72 -25 -26 0 -58 4 -69 9 z m 42 95 c 7 18 -13 45 -33 45 -17 0 -27 -24 -19 -45 7 -20 45 -19 52 0 z m 94 0 c 15 18 6 45 -13 45 -20 0 -40 -27 -33 -45 7 -19 30 -19 46 0 z M 6666 -3697 l -30 40 69 136 c 37 75 72 144 77 154 6 13 4 19 -9 24 -10 3 -33 12 -52 19 -18 8 -39 14 -45 14 -17 -1 37 -29 56 -30 10 0 18 -5 18 -11 0 -5 4 -7 10 -4 6 3 10 1 10 -5 0 -16 -33 -5 -124 44 -45 24 -80 50 -82 59 -1 9 -1 17 1 17 2 0 39 -15 82 -34 43 -19 94 -37 114 -41 30 -6 38 -3 51 17 18 27 57 140 88 253 12 44 30 98 41 120 11 22 22 64 26 92 l 6 52 28 -20 c 23 -16 29 -28 29 -57 0 -53 -61 -277 -115 -422 -47 -125 -195 -443 -212 -453 -4 -3 -21 13 -37 36 z M 4237 -3593 c -4 3 -7 23 -7 44 0 40 28 82 78 118 l 27 19 -5 -61 c -6 -65 -14 -87 -32 -87 -7 0 -21 -9 -33 -20 -12 -11 -25 -17 -28 -13 z M 3401 -3424 c 0 11 3 14 6 6 3 -7 2 -16 -1 -19 -3 -4 -6 2 -5 13 z M 3351 -3389 c -6 18 -9 34 -7 36 2 2 9 -10 15 -28 6 -18 9 -34 7 -36 -2 -2 -9 10 -15 28 z M 4359 -3381 c 5 9 18 24 28 34 19 16 20 16 18 -1 -2 -25 -12 -39 -35 -45 -16 -4 -18 -2 -11 12 z M 6414 -3304 c -12 5 -6 64 7 64 5 0 9 -16 9 -35 0 -19 -1 -35 -2 -34 -2 0 -8 3 -14 5 z M 3225 -3260 c 6 9 -1 11 -26 6 -34 -5 -34 -5 -7 6 16 7 28 15 28 20 0 4 6 8 14 8 8 0 22 8 32 18 10 9 19 16 21 14 2 -1 16 4 33 13 36 19 53 0 21 -24 -38 -29 -124 -74 -116 -61 z M 4446 -3230 c 4 14 4 22 0 19 -4 -4 -21 8 -39 25 -18 17 -50 44 -71 59 -29 22 -35 32 -26 42 9 11 18 11 48 1 32 -12 37 -17 34 -41 -3 -28 -3 -28 22 -11 19 12 34 14 55 9 l 29 -8 -29 -60 c -16 -33 -26 -49 -23 -35 z M 3155 -3193 c -23 54 -13 61 13 9 12 -25 17 -46 12 -46 -5 0 -17 17 -25 37 z M 6620 -3201 c 0 5 7 11 15 15 9 3 15 0 15 -9 0 -8 -7 -15 -15 -15 -8 0 -15 4 -15 9 z M 3382 -3140 c 3 16 1 30 -4 30 -4 0 -8 7 -8 16 0 8 -3 13 -8 11 -4 -3 -8 13 -8 34 -2 49 12 42 21 -11 7 -42 20 -53 28 -22 2 9 3 4 1 -11 -3 -24 -1 -27 16 -22 26 8 25 4 -5 -29 -31 -34 -38 -33 -33 4 z M 3457 -3091 c -4 17 -3 21 5 13 5 -5 8 -16 6 -23 -3 -8 -7 -3 -11 10 z M 7007 -2772 c -20 21 -37 46 -37 57 0 15 9 11 43 -23 40 -39 44 -41 59 -24 8 9 83 79 167 156 83 76 151 143 151 149 0 5 7 15 15 21 12 9 -37 62 -283 306 -163 162 -332 328 -375 369 -42 40 -77 77 -77 81 0 5 -20 32 -45 61 -50 59 -51 62 -31 78 11 10 17 8 25 -6 10 -15 10 -14 5 8 -10 49 25 204 59 255 35 54 113 118 177 147 69 31 188 29 260 -4 140 -66 229 -221 217 -381 -9 -129 -96 -257 -217 -316 -46 -23 -68 -27 -137 -27 -73 0 -80 -1 -72 -17 5 -9 22 -26 39 -38 l 30 -21 0 20 c 0 17 6 21 30 21 33 0 45 -16 55 -75 12 -69 48 -115 225 -288 l 171 -168 -38 -37 c -71 -69 -364 -337 -372 -340 -3 -1 -23 15 -44 36 z m 112 968 c 85 42 152 118 176 198 17 56 20 186 5 186 -6 0 -10 -11 -10 -24 0 -23 -3 -24 -30 -16 -21 6 -30 5 -31 -3 0 -7 -4 -3 -9 8 -5 12 -9 14 -9 6 -1 -9 -8 -6 -21 9 -11 12 -17 26 -15 31 3 4 -7 10 -22 12 -23 3 -21 4 9 6 28 1 36 -2 32 -13 -3 -8 -1 -17 5 -21 7 -4 11 5 11 24 0 17 -4 31 -8 31 -5 0 -9 7 -9 15 0 20 47 20 73 0 18 -14 17 -14 -14 -15 -37 0 -41 -23 -4 -28 35 -5 46 31 23 75 -55 107 -151 172 -263 178 -62 4 -62 4 -13 -4 53 -9 135 -45 135 -60 0 -5 3 -17 7 -27 5 -13 3 -15 -8 -9 -8 5 -3 -4 11 -20 l 25 -28 -64 7 c -54 6 -63 5 -58 -8 4 -9 -1 -17 -11 -20 -9 -2 -2 -3 16 -1 25 3 32 0 28 -10 -3 -8 0 -16 7 -19 7 -2 -13 -5 -43 -5 -41 -1 -51 -4 -40 -11 11 -8 7 -9 -15 -4 -24 5 -28 4 -18 -6 6 -7 40 -14 75 -15 82 -3 78 -2 78 -25 0 -11 5 -20 11 -20 5 0 7 4 4 10 -3 6 -1 10 5 10 13 0 12 -2 -15 -47 -11 -18 -25 -33 -32 -33 -6 0 -14 -6 -16 -12 -4 -8 -6 -7 -6 3 -1 9 8 19 18 22 15 3 19 13 18 41 -1 21 -6 36 -13 36 -7 0 -10 -8 -7 -21 6 -20 3 -21 -23 -15 -16 4 -37 8 -46 9 -9 1 -15 4 -13 7 2 3 -5 11 -15 18 -16 10 -18 9 -14 -3 4 -10 0 -15 -12 -16 -16 0 -16 -2 4 -11 12 -6 22 -17 22 -24 0 -8 6 -11 15 -8 11 5 15 -1 15 -24 l 0 -30 -30 28 c -16 15 -30 33 -30 39 0 6 -7 11 -16 11 -8 0 -13 -4 -10 -8 2 -4 -4 -9 -15 -9 -14 -1 -19 5 -19 23 0 13 -4 24 -9 24 -5 0 -18 3 -28 6 -10 3 -7 -2 7 -10 l 25 -15 -27 -1 c -15 0 -30 -5 -33 -10 -4 -6 -10 -8 -14 -5 -5 2 -28 -2 -52 -9 l -44 -14 47 -1 c 37 -1 48 -5 48 -17 0 -11 6 -14 20 -9 13 4 22 1 26 -8 6 -16 44 -30 44 -17 0 5 -5 10 -12 12 -22 8 3 28 35 28 18 0 27 -4 22 -8 -5 -4 -11 -18 -12 -32 -7 -77 -12 -95 -32 -109 -17 -11 -25 -11 -33 -3 -18 18 -27 14 -21 -10 l 5 -23 -21 24 c -23 26 -42 22 -21 -4 11 -13 10 -14 -3 -9 -8 3 -22 22 -31 42 -8 20 -15 31 -15 24 -1 -7 4 -23 11 -35 6 -12 13 -35 15 -51 3 -27 1 -28 -27 -22 -17 3 -30 2 -30 -3 0 -16 101 -103 143 -121 71 -33 150 -27 236 16 z m -405 190 c 3 9 6 27 6 40 0 19 5 24 24 24 14 0 28 -5 31 -10 8 -13 35 -13 35 0 0 5 -7 7 -15 4 -11 -5 -13 -2 -9 10 5 12 0 16 -22 16 -32 0 -25 13 9 15 12 1 23 9 25 18 3 13 -4 17 -31 17 -20 0 -43 3 -53 7 -13 5 -15 3 -9 -7 6 -10 2 -11 -19 -6 -24 6 -26 4 -26 -29 0 -37 27 -115 40 -115 4 0 11 7 14 16 z m 14 240 c 18 5 29 13 26 17 -4 4 0 7 10 7 9 0 15 -4 11 -9 -3 -5 0 -13 6 -17 7 -4 9 -3 5 4 -11 18 36 27 49 8 15 -20 26 -21 19 -1 -5 11 -2 13 10 9 10 -4 16 -1 16 9 0 18 -59 33 -86 23 -10 -4 -14 -1 -12 6 3 7 10 14 16 14 7 1 19 2 27 3 8 0 15 6 15 12 0 5 -4 7 -10 4 -24 -15 -4 24 49 95 l 24 32 -24 -7 c -34 -10 -90 -47 -129 -86 -42 -43 -90 -144 -89 -189 l 0 -35 17 45 c 14 35 24 47 50 56 z m 219 30 c -3 3 -12 4 -19 1 -8 -3 -5 -6 6 -6 11 -1 17 2 13 5 z M 6868 -1673 c 7 3 16 2 19 -1 4 -3 -2 -6 -13 -5 -11 0 -14 3 -6 6 z M 7110 -1331 c 0 6 9 9 20 8 11 -1 20 -5 20 -9 0 -4 -9 -8 -20 -8 -11 0 -20 4 -20 9 z M 7209 -1310 c -1 3 -1 9 0 14 1 5 -6 18 -16 29 -13 14 -14 18 -3 12 20 -11 60 -47 60 -55 0 -7 -40 -8 -41 0 z M 6698 -1513 c 7 3 16 2 19 -1 4 -3 -2 -6 -13 -5 -11 0 -14 3 -6 6 z M 7005 -2698 l -40 41 45 -24 c 52 -28 35 -37 171 84 110 98 131 125 116 152 -10 18 -9 19 7 6 13 -11 20 -11 29 -2 9 9 4 19 -22 43 -48 45 -60 45 -50 0 4 -20 6 -38 4 -41 -3 -2 -8 10 -11 28 -7 35 -24 52 -24 24 0 -10 -4 -14 -8 -8 -4 5 -13 11 -20 13 -10 2 -10 -2 -1 -19 8 -17 8 -20 -1 -14 -16 10 -80 14 -80 5 0 -3 6 -12 12 -20 11 -12 10 -12 -2 -4 -25 18 -52 25 -44 12 5 -8 2 -9 -10 -5 -10 4 -24 7 -31 7 -7 0 -18 12 -24 28 l -11 27 5 -28 c 5 -26 4 -28 -17 -21 -13 4 -29 7 -36 7 -6 0 -12 4 -12 8 0 5 -15 16 -32 25 l -33 17 19 -22 c 17 -18 17 -21 3 -15 -10 3 -17 1 -17 -6 0 -6 -4 -8 -10 -5 -15 9 -12 27 2 20 7 -4 6 -1 -2 7 -10 9 -14 27 -12 57 4 47 -10 65 -41 55 -16 -5 -18 -1 -15 33 3 37 4 38 40 35 21 -2 38 1 38 6 0 12 -47 25 -60 17 -5 -3 -8 3 -7 14 0 11 5 17 10 14 5 -3 13 1 18 8 7 11 9 10 9 -3 0 -24 26 -23 33 1 2 10 0 26 -6 37 -10 17 -11 17 -18 -1 -7 -20 -8 -20 -9 0 0 11 -21 42 -45 69 -44 49 -44 49 -54 25 -7 -19 -3 -35 21 -78 28 -49 29 -52 9 -42 -12 7 -19 16 -16 22 4 5 3 8 -2 7 -17 -5 -76 71 -70 91 3 15 1 18 -12 14 -9 -3 -6 4 9 17 l 25 22 -27 -16 c -28 -16 -38 -10 -17 11 8 8 8 16 -1 30 -11 17 -11 17 -6 -1 4 -10 1 -24 -4 -32 -14 -15 7 -60 56 -119 24 -29 30 -45 24 -55 -6 -8 -10 -10 -10 -5 0 6 -9 22 -19 35 -63 81 -90 120 -82 120 10 0 3 38 -9 55 -11 14 -24 61 -15 53 8 -8 79 72 71 80 -3 2 -19 -7 -36 -22 -18 -14 -35 -26 -39 -26 -4 0 -15 15 -23 32 -9 18 -31 64 -49 101 l -33 68 32 32 32 32 43 -50 c 72 -85 346 -370 566 -590 l 211 -209 -37 -39 c -40 -40 -298 -267 -305 -267 -2 0 -22 19 -43 42 z m 55 292 c 0 3 -4 8 -10 11 -6 3 -10 1 -10 -4 0 -6 4 -11 10 -11 6 0 10 2 10 4 z m 106 34 c -17 16 -18 16 -5 -5 7 -12 15 -20 18 -17 3 2 -3 12 -13 22 z m -227 51 c -8 22 -15 29 -22 22 -7 -7 -4 -18 7 -36 22 -34 29 -27 15 14 z m 121 21 c 0 6 -7 10 -16 10 -8 0 -12 -4 -9 -10 3 -6 10 -10 16 -10 5 0 9 4 9 10 z m -40 40 c 0 6 -4 10 -10 10 -6 0 -10 -4 -10 -10 0 -6 4 -10 10 -10 6 0 10 4 10 10 z m -186 30 c -6 6 -10 2 -11 -12 -2 -16 1 -18 10 -9 7 7 8 14 1 21 z m 61 -12 c 4 10 0 12 -11 8 -8 -3 -20 -6 -25 -6 -5 0 -9 -4 -9 -9 0 -15 39 -8 45 7 z m 40 22 c -5 8 -11 8 -17 2 -6 -6 -7 -16 -3 -22 5 -8 11 -8 17 -2 6 6 7 16 3 22 z m 125 -20 c 0 6 -5 10 -11 10 -5 0 -7 -4 -4 -10 3 -6 8 -10 11 -10 2 0 4 4 4 10 z m -34 87 c -12 31 -61 101 -78 112 -14 9 -16 8 -11 -7 6 -15 4 -15 -16 2 -13 12 -18 22 -11 26 8 5 7 10 -2 18 -10 8 -13 5 -14 -14 -2 -18 10 -32 48 -59 27 -20 57 -49 66 -65 19 -33 28 -39 18 -13 z m -358 366 l 21 23 -53 52 c -29 28 -56 49 -59 45 -18 -17 -5 -70 26 -105 17 -20 35 -37 38 -37 3 -1 15 9 27 22 z M 6651 -1754 c 0 11 3 14 6 6 3 -7 2 -16 -1 -19 -3 -4 -6 2 -5 13 z M 3144 -2508 c 8 13 96 101 195 196 129 123 186 172 203 172 19 0 10 -13 -58 -78 -44 -42 -136 -130 -202 -194 -67 -65 -129 -118 -137 -118 -14 0 -14 3 -1 22 z M 3065 -2509 c 4 6 26 24 48 41 l 42 30 -31 -4 -31 -4 30 49 c 27 44 33 48 66 47 56 -3 58 -1 21 21 l -35 19 45 -1 c 60 -1 69 1 45 11 -38 16 -88 11 -113 -12 l -24 -23 16 30 c 9 17 25 52 36 79 11 27 23 46 27 43 3 -4 21 6 39 21 27 22 41 27 72 24 33 -3 39 -7 35 -23 -7 -24 -7 -24 55 6 29 14 62 25 74 25 20 0 18 -5 -22 -42 -25 -22 -94 -87 -155 -143 -181 -167 -225 -205 -236 -205 -5 0 -7 5 -4 11 z m 275 309 c 13 8 13 10 -2 10 -9 0 -20 -4 -23 -10 -8 -13 5 -13 25 0 z M 3022 -2464 c 10 10 20 16 22 13 3 -3 -5 -11 -17 -18 -21 -13 -21 -12 -5 5 z M 2804 -2431 c 23 25 114 73 129 68 6 -2 -16 -18 -50 -35 -34 -17 -64 -36 -68 -42 -3 -5 -11 -10 -17 -10 -6 0 -4 8 6 19 z M 2808 -2378 c 6 6 18 8 28 6 14 -3 12 -5 -9 -10 -19 -3 -25 -2 -19 4 z M 6823 -2345 c -3 9 -3 18 -1 21 3 3 8 -4 11 -16 6 -23 -1 -27 -10 -5 z M 3590 -2332 c 5 9 14 29 20 44 6 17 17 28 28 28 20 0 72 45 72 62 0 6 -17 8 -38 7 -32 -4 -37 -1 -37 17 0 19 6 21 57 21 31 0 55 -4 52 -9 -3 -4 -2 -8 3 -9 4 0 19 -2 32 -5 18 -3 22 -1 17 12 -3 8 -6 25 -6 35 0 11 -4 17 -10 14 -12 -7 -12 2 -1 30 7 16 10 10 16 -28 4 -26 11 -50 16 -53 5 -3 9 -14 9 -25 0 -11 7 -19 17 -19 29 0 1 -18 -37 -25 -75 -12 -127 -36 -164 -75 -39 -41 -64 -53 -46 -22 z M 2765 -2259 c -4 6 -5 12 -2 15 2 3 7 -2 10 -11 7 -17 1 -20 -8 -4 z M 3876 -2245 c -11 8 -15 15 -9 15 6 0 16 -7 23 -15 16 -19 11 -19 -14 0 z M 3151 -2204 c 0 11 3 14 6 6 3 -7 2 -16 -1 -19 -3 -4 -6 2 -5 13 z M 3900 -2213 c -26 5 -70 40 -70 56 0 13 105 0 130 -16 21 -12 27 -37 10 -37 -6 0 -10 7 -10 16 0 9 -6 14 -12 11 -7 -2 -12 -12 -12 -21 1 -9 -1 -15 -5 -15 -3 1 -17 4 -31 6 z M 3158 -2145 c -3 22 -1 45 5 50 7 7 7 5 2 -4 -5 -9 -4 -12 3 -7 6 4 9 13 6 21 -4 9 3 18 18 24 14 5 32 17 41 26 10 9 17 12 17 7 0 -5 -9 -17 -20 -27 -11 -10 -20 -23 -20 -28 0 -6 -6 -18 -14 -26 -7 -9 -18 -29 -23 -46 l -10 -30 -5 40 z M 3369 -2152 c 6 12 19 22 28 22 9 0 14 -1 12 -3 -2 -1 -15 -11 -28 -22 l -24 -20 12 23 z M 6760 -2140 c 0 5 7 7 15 4 8 -4 15 -8 15 -10 0 -2 -7 -4 -15 -4 -8 0 -15 4 -15 10 z M 3230 -1931 c 0 5 4 13 10 16 6 3 10 2 10 -4 0 -5 -4 -13 -10 -16 -6 -3 -10 -2 -10 4 z M 6596 -1167 l -18 32 34 28 c 18 16 49 41 68 55 53 40 204 168 217 183 8 11 4 34 -19 97 -17 46 -32 81 -34 79 -2 -2 7 -37 20 -78 24 -78 25 -89 3 -71 -10 8 -27 0 -72 -34 -68 -50 -79 -55 -45 -19 13 14 21 27 18 30 -12 12 -60 -41 -121 -134 -36 -54 -70 -102 -75 -105 -5 -3 -15 1 -22 10 -11 12 -8 21 22 52 19 20 62 76 96 124 48 67 62 94 62 122 0 43 -13 53 -28 21 -6 -13 -38 -59 -72 -100 -33 -42 -72 -97 -87 -123 -14 -26 -28 -49 -30 -51 -1 -2 -18 8 -38 23 -80 61 -194 102 -300 109 l -39 2 64 51 c 69 53 344 309 545 506 67 65 124 118 128 118 4 0 7 -26 7 -58 0 -91 30 -381 45 -440 7 -29 22 -65 32 -79 10 -14 23 -32 28 -40 11 -16 20 -7 -149 -146 -58 -49 -132 -113 -164 -142 l -58 -53 -18 31 z m 261 229 c 37 31 70 63 72 70 2 7 -14 -3 -36 -22 -164 -142 -238 -210 -261 -240 -14 -19 15 3 66 50 51 47 122 111 159 142 z m -348 59 c 2 7 -10 2 -27 -10 -44 -31 -53 -50 -12 -24 19 12 36 27 39 34 z m 57 -23 c -4 3 -14 -2 -24 -12 -16 -18 -16 -18 6 -6 13 6 21 14 18 18 z m -140 39 c 27 20 73 58 103 84 29 26 93 69 142 95 l 89 47 0 46 c 0 25 -5 53 -10 61 -6 10 -10 11 -10 2 0 -6 -5 -12 -12 -12 -16 0 -78 -61 -78 -77 0 -7 -22 -27 -50 -44 -27 -16 -52 -39 -55 -50 -4 -10 -10 -19 -14 -19 -4 0 -23 -14 -42 -31 -19 -17 -53 -47 -77 -67 -86 -70 -73 -101 14 -35 z m 414 43 c 0 15 -21 70 -59 150 -11 24 -11 23 -6 -10 19 -134 30 -171 51 -163 8 3 14 13 14 23 z m -229 1 l 24 20 -30 -17 c -39 -23 -40 -24 -28 -24 6 0 21 9 34 21 z m -130 127 c 13 15 12 16 -3 3 -10 -7 -18 -15 -18 -17 0 -8 8 -3 21 14 z m 326 160 c -3 9 -5 1 -5 -18 0 -19 2 -27 5 -18 2 10 2 26 0 36 z m -15 108 c -4 35 -9 41 -23 27 -13 -13 0 -65 15 -60 6 2 10 17 8 33 z M 6795 -749 c -4 6 -5 12 -2 15 2 3 7 -2 10 -11 7 -17 1 -20 -8 -4 z M 3184 -1072 c -33 26 -101 83 -151 126 l -90 79 24 48 c 32 61 62 229 69 389 3 69 7 140 10 158 l 5 34 87 -84 c 164 -157 461 -419 614 -542 40 -33 76 -62 81 -66 8 -7 -37 -95 -53 -105 -5 -3 -12 10 -16 30 -7 39 -20 49 -78 59 -31 6 -59 26 -134 96 -52 49 -98 88 -101 86 -3 -2 -22 12 -41 31 -19 19 -49 43 -67 54 -18 11 -35 28 -38 37 -5 14 -109 97 -137 110 -4 2 -10 -14 -13 -35 -9 -56 -84 -245 -107 -270 -11 -12 -26 -19 -34 -16 -29 11 -12 -14 47 -70 33 -32 64 -55 69 -52 13 8 116 -90 123 -115 9 -34 -7 -30 -69 18 z m -114 341 c 19 51 32 109 35 154 l 5 72 -20 -85 c -10 -47 -30 -120 -44 -163 -43 -130 -27 -115 24 22 z M 3099 -942 l -24 27 27 -24 c 16 -14 28 -26 28 -28 0 -8 -8 -1 -31 25 z M 3164 -912 c -44 41 -86 89 -67 79 14 -9 28 33 43 133 6 41 12 76 14 77 2 2 15 -8 29 -21 24 -22 57 -39 82 -41 5 0 9 -7 7 -15 -3 -11 0 -11 13 0 17 14 12 17 99 -63 43 -40 188 -147 216 -159 30 -13 -12 -8 -127 17 -65 14 -128 32 -141 41 -22 15 -47 60 -43 78 3 13 -30 46 -62 63 -16 8 -30 13 -31 11 -13 -21 -26 -65 -26 -89 0 -22 9 -39 35 -62 32 -28 46 -58 27 -57 -4 1 -27 19 -52 40 -58 52 -65 31 -9 -26 53 -54 48 -58 -7 -6 z m 256 57 c 0 7 -81 47 -86 42 -3 -2 14 -14 38 -26 47 -23 48 -23 48 -16 z M 4025 -934 c -106 17 -115 19 -115 37 0 17 57 50 71 41 6 -3 38 8 72 25 34 17 76 34 93 37 l 31 6 -9 -69 c -5 -37 -11 -74 -13 -81 -5 -14 -12 -14 -130 4 z M 5782 -942 c -21 3 -22 7 -16 60 4 31 8 58 9 59 1 2 28 -8 61 -21 l 59 -24 -50 -4 c -35 -3 -25 -5 35 -6 84 -2 84 -2 65 17 -29 28 -169 87 -243 102 l -62 13 0 37 c 0 21 5 41 10 44 27 17 246 -85 360 -167 54 -39 55 -39 58 -16 6 50 13 68 28 68 24 0 28 -28 9 -75 -9 -25 -14 -49 -11 -54 3 -5 -37 -12 -90 -16 -53 -4 -119 -10 -148 -14 -28 -3 -61 -5 -74 -3 z M 3827 -870 l -37 37 67 40 c 38 22 79 43 93 47 14 4 67 23 118 42 51 19 97 34 102 34 6 0 10 -16 10 -35 0 -21 -5 -35 -12 -35 -7 0 -48 -13 -92 -29 -45 -17 -107 -33 -139 -36 -49 -6 -60 -11 -69 -31 -9 -19 -8 -28 5 -42 43 -47 3 -40 -46 8 z M 6130 -830 c 0 6 4 10 10 10 6 0 10 -4 10 -10 0 -6 -4 -10 -10 -10 -6 0 -10 4 -10 10 z M 6135 -754 c -33 24 -69 46 -80 50 -11 4 -32 15 -46 25 -36 25 -126 58 -249 90 l -105 27 -3 41 c -3 34 0 41 15 41 37 0 222 -50 279 -75 61 -27 274 -145 309 -171 20 -15 19 -16 -15 -45 -19 -16 -37 -29 -40 -28 -3 0 -32 20 -65 45 z M 3681 -766 c -13 14 -20 29 -17 34 9 16 214 126 298 160 43 18 109 38 148 46 l 70 13 0 -47 0 -47 -68 -12 c -72 -13 -257 -93 -328 -141 -52 -36 -74 -37 -103 -6 z " />
  </g>
</svg>